<?xml version="1.0" standalone="no"?>
<!DOCTYPE svg PUBLIC "-//W3C//DTD SVG 20010904//EN"
 "http://www.w3.org/TR/2001/REC-SVG-20010904/DTD/svg10.dtd">
<svg version="1.0" xmlns="http://www.w3.org/2000/svg"
 width="3.000000pt" height="2.000000pt" viewBox="0 0 3.000000 2.000000"
 preserveAspectRatio="xMidYMid meet">
<metadata>
Created by potrace 1.16, written by Peter Selinger 2001-2019
</metadata>
<g transform="translate(0.000000,2.000000) scale(0.000595,-0.000397)"
fill="#000000" stroke="none">
<path d="M30 4424 c0 -480 3 -605 13 -602 6 3 14 27 17 54 5 44 8 49 32 52 21
3 30 11 39 40 15 46 32 59 87 68 23 3 42 10 42 14 0 4 -16 24 -35 44 -33 35
-38 56 -14 56 6 0 40 -32 77 -71 62 -66 68 -70 100 -64 29 5 33 4 30 -12 -2
-13 -14 -19 -47 -21 -24 -2 -48 1 -54 7 -6 6 -16 6 -29 -2 -15 -9 -20 -9 -27
1 -15 24 -73 11 -91 -21 -13 -23 -13 -29 -1 -36 8 -5 20 -7 28 -4 8 3 13 -2
13 -15 0 -47 48 -38 73 13 21 44 37 45 37 1 0 -39 -19 -62 -67 -83 -19 -7 -39
-25 -45 -38 -9 -21 -18 -25 -55 -25 -37 0 -45 -4 -53 -26 -6 -14 -10 -39 -10
-55 0 -31 -30 -69 -55 -69 -13 0 -15 -61 -15 -491 l0 -491 31 26 c18 15 43 26
60 26 36 0 38 18 4 50 -14 13 -25 29 -25 36 0 33 27 21 90 -40 58 -56 73 -66
103 -66 71 0 46 -42 -26 -46 -41 -2 -42 -3 -39 -36 4 -43 -26 -82 -73 -98 -22
-7 -35 -18 -35 -29 0 -26 -20 -41 -56 -41 l-31 0 -8 -1196 c-4 -657 -6 -1197
-4 -1198 2 -2 550 -7 1217 -11 l1213 -7 -3 28 c-2 22 3 31 25 42 15 7 36 31
47 52 22 43 48 55 104 48 l34 -4 -30 38 c-16 21 -34 40 -39 43 -12 8 -12 45 1
45 5 0 38 -29 72 -65 59 -60 67 -65 106 -65 29 0 42 -4 42 -14 0 -28 -68 -35
-110 -11 -51 29 -141 9 -155 -35 -7 -22 11 -53 26 -45 4 3 13 -4 19 -15 19
-35 38 -27 85 35 12 16 16 17 24 6 9 -14 4 -49 -12 -68 -7 -10 89 -13 476 -13
379 0 486 3 490 13 4 9 7 9 18 -1 16 -14 123 -17 114 -2 -3 6 -28 10 -56 10
-36 0 -49 4 -49 14 0 11 15 16 53 18 l52 3 3 52 c3 54 21 74 43 47 9 -11 9
-20 0 -40 -19 -42 -6 -62 45 -70 24 -3 44 -10 44 -14 0 -12 -38 -23 -50 -15
-6 3 -20 3 -33 -1 -21 -8 -20 -8 8 -15 17 -4 288 -7 603 -8 l572 -1 0 546 c0
516 -1 546 -17 538 -10 -4 -39 -9 -65 -12 -40 -3 -50 0 -69 22 -27 31 -45 33
-59 6 -13 -23 -4 -44 34 -79 31 -29 34 -66 7 -74 -10 -2 -26 -21 -36 -40 -23
-48 -73 -72 -119 -57 -19 6 -37 17 -40 25 -3 8 -11 15 -18 15 -24 0 -58 64
-58 109 0 32 6 47 25 65 30 28 70 38 103 25 20 -8 22 -12 12 -24 -7 -8 -23
-15 -36 -15 -26 0 -64 -32 -64 -54 0 -20 36 -62 75 -86 33 -21 37 -21 60 -6
21 14 25 24 25 69 0 34 -7 62 -19 81 -19 28 -19 29 8 75 36 61 65 65 117 17
22 -20 48 -36 60 -36 22 0 50 25 55 50 4 21 -10 60 -23 60 -12 0 -47 41 -48
55 0 6 23 33 50 60 l50 49 0 531 0 531 -32 15 c-61 27 -89 130 -48 181 10 14
33 31 50 38 l30 12 0 438 0 438 -47 -14 c-48 -14 -123 -5 -123 16 0 6 -7 10
-15 10 -25 0 -55 60 -55 112 0 118 104 183 228 143 l22 -7 0 586 0 586 -84 0
c-76 0 -85 -2 -91 -20 -4 -14 -15 -20 -36 -20 -22 0 -29 5 -29 20 0 20 -7 20
-452 20 -249 0 -463 3 -476 6 -22 6 -22 5 -16 -34 8 -53 -24 -123 -70 -152
-44 -27 -118 -27 -161 0 -51 32 -69 67 -69 133 l1 57 -422 0 -423 0 -40 -40
c-22 -22 -49 -40 -61 -40 -29 0 -120 47 -128 65 -3 9 -19 15 -41 15 l-37 0 39
-26 c45 -31 66 -76 66 -142 0 -58 -23 -93 -81 -122 -49 -25 -82 -25 -136 1
-117 56 -106 229 17 278 17 7 -111 10 -410 10 l-435 0 -35 -35 c-19 -19 -47
-38 -62 -41 -20 -4 -30 -15 -38 -39 -25 -76 -123 -100 -181 -43 -37 36 -63 35
-67 -4 -3 -22 6 -39 37 -72 40 -43 46 -75 15 -75 -7 0 -22 -17 -33 -38 -30
-59 -95 -79 -149 -46 -15 9 -42 34 -59 56 -53 65 -42 140 26 167 36 15 76 11
76 -8 0 -8 -14 -19 -32 -25 -43 -15 -67 -39 -59 -62 3 -11 22 -36 42 -56 42
-45 84 -51 108 -16 16 23 22 98 8 98 -4 0 -13 14 -19 31 -10 26 -9 37 4 63 38
76 63 83 113 31 39 -41 79 -46 110 -15 28 28 25 40 -16 93 l-37 47 -588 0
-589 0 0 -606z m4798 456 c60 -63 71 -70 105 -70 31 0 38 -3 35 -17 -2 -14
-15 -19 -54 -21 l-51 -3 1 -44 c1 -50 -16 -74 -67 -91 -20 -7 -33 -19 -37 -35
-5 -20 -13 -25 -55 -29 l-50 -5 -6 -46 c-7 -50 -34 -99 -53 -99 -7 0 -23 11
-36 25 -30 32 -38 31 -53 -2 -7 -16 -20 -40 -30 -55 -17 -25 -17 -29 -2 -57
14 -29 14 -32 -5 -51 -11 -11 -25 -20 -30 -20 -6 0 -31 21 -56 46 -38 40 -48
45 -72 39 -64 -16 -70 -61 -17 -125 38 -46 41 -55 22 -67 -6 -4 -25 -26 -41
-48 -30 -41 -65 -74 -78 -75 -17 0 -6 43 18 76 31 40 20 43 -43 13 -46 -22
-53 -40 -27 -77 14 -21 14 -26 -4 -60 -23 -45 -73 -77 -107 -68 -14 4 -40 20
-60 37 -78 69 -106 -26 -28 -97 34 -31 37 -54 8 -54 -7 0 -22 -17 -32 -37 -10
-21 -31 -45 -48 -54 -26 -15 -35 -16 -67 -5 -20 7 -55 32 -77 54 -35 35 -41
47 -41 84 0 51 18 81 60 98 24 10 33 10 46 -1 14 -12 11 -15 -25 -31 -39 -16
-41 -20 -41 -59 0 -33 6 -47 31 -70 40 -38 101 -41 123 -6 21 32 22 68 3 104
-23 43 -21 85 4 117 27 35 49 33 95 -9 43 -39 72 -44 102 -17 40 34 38 59 -12
108 -51 50 -56 63 -26 71 12 3 29 22 39 42 11 20 31 47 45 60 22 20 25 30 20
58 -7 36 2 41 38 22 17 -9 25 -6 52 19 17 16 41 35 54 41 26 14 28 33 7 51
-21 17 -19 69 3 77 9 4 22 14 29 24 7 9 26 19 43 22 20 5 34 15 40 32 9 24 12
25 64 19 30 -4 71 -3 91 0 34 7 36 8 33 47 -2 42 6 55 37 61 12 2 21 13 23 28
5 32 37 67 70 75 51 13 55 24 22 62 -31 35 -35 45 -23 56 13 14 25 6 91 -63z
m-4013 -209 c107 -49 132 -169 51 -249 -29 -30 -43 -36 -89 -40 -96 -8 -167
50 -167 136 0 21 5 53 11 70 15 45 91 98 144 101 6 0 28 -8 50 -18z m2422
-142 c66 -64 75 -70 103 -64 24 5 30 3 30 -9 0 -9 -11 -21 -24 -27 -20 -10
-31 -8 -59 10 -24 15 -36 18 -39 10 -3 -9 -12 -10 -36 -1 -54 19 -107 -13
-100 -60 2 -16 9 -22 22 -20 15 3 18 -1 13 -17 -4 -18 -1 -21 27 -21 17 0 41
7 53 15 15 10 24 12 28 4 11 -17 -24 -48 -62 -55 -29 -5 -40 -1 -73 25 -21 17
-43 31 -48 31 -13 0 -22 -25 -22 -61 0 -23 4 -29 21 -29 21 0 21 -1 -5 -25
-28 -26 -46 -32 -46 -15 0 6 -12 15 -26 20 -28 11 -24 30 6 30 16 0 19 9 22
53 3 48 5 52 31 55 16 2 27 9 27 18 0 8 7 28 15 44 16 31 72 56 106 47 30 -8
23 15 -16 53 -32 31 -46 60 -28 60 3 0 39 -32 80 -71z m-1335 -95 c56 -55 73
-65 94 -61 17 3 28 -1 31 -10 9 -22 -16 -34 -67 -32 -72 3 -109 -10 -126 -44
-13 -24 -13 -31 -3 -38 18 -11 48 7 61 37 11 23 32 32 41 17 9 -17 -15 -75
-34 -80 -10 -3 -19 -9 -19 -13 0 -4 -13 -10 -30 -13 -24 -5 -30 -12 -30 -31 0
-23 -4 -25 -52 -28 l-53 -3 -3 -45 c-2 -32 -11 -53 -29 -72 l-26 -27 -25 19
c-38 31 -55 25 -75 -25 -13 -32 -17 -56 -12 -84 6 -35 4 -41 -19 -56 -27 -18
-42 -13 -64 17 -15 21 -64 48 -87 48 -22 0 -55 -36 -55 -60 0 -11 19 -41 42
-66 l41 -45 -34 -32 c-19 -18 -46 -49 -61 -69 -20 -27 -33 -35 -48 -31 -18 5
-17 8 15 46 39 45 43 62 19 71 -18 7 -25 3 -71 -33 -36 -28 -42 -51 -18 -71
19 -16 19 -43 0 -80 -31 -61 -112 -70 -170 -19 -34 31 -36 31 -55 14 -29 -26
-25 -42 20 -91 45 -48 50 -69 20 -77 -11 -3 -27 -21 -35 -41 -35 -82 -127 -76
-208 13 -48 53 -49 88 -4 137 24 26 41 36 67 37 45 3 56 -29 13 -39 -37 -9
-63 -32 -63 -58 0 -33 69 -96 106 -96 37 0 49 12 57 58 5 24 1 45 -14 74 -23
45 -16 83 23 125 28 30 34 29 79 -12 64 -57 129 -45 129 25 0 11 -18 40 -41
65 l-40 44 25 16 c14 10 26 22 26 28 0 6 21 32 46 58 41 42 45 49 34 69 -6 12
-9 29 -6 37 6 14 8 14 24 -1 27 -23 41 -20 79 19 18 19 39 32 47 29 7 -3 18 1
24 9 9 11 6 19 -13 37 -14 13 -25 33 -25 45 0 24 47 64 95 81 16 6 34 19 39
30 8 17 19 20 88 21 44 0 83 4 88 9 5 5 10 29 12 54 2 33 7 45 19 45 23 0 49
24 49 44 0 33 29 59 75 65 51 8 56 22 20 56 -26 25 -33 50 -13 50 6 0 42 -30
80 -66z m857 -280 l-23 -24 40 -41 c23 -24 31 -37 20 -33 -13 5 -17 4 -12 -4
4 -7 2 -12 -4 -12 -7 0 -9 9 -6 23 3 12 3 16 0 10 -6 -14 -31 -5 -58 22 -13
14 -16 12 -21 -22 -4 -21 -11 -54 -16 -73 -13 -51 29 -179 80 -247 49 -64 75
-113 61 -113 -6 0 -13 8 -17 18 -3 9 -29 49 -57 87 -62 85 -72 102 -91 157
-19 54 -19 79 0 104 8 10 15 34 15 52 0 17 4 32 10 32 5 0 13 12 16 28 4 15
22 41 41 58 18 17 34 41 35 55 1 13 3 7 5 -15 3 -30 -1 -44 -18 -62z m908
-405 c41 -26 62 -65 70 -130 5 -41 2 -55 -16 -79 -15 -21 -21 -44 -22 -82 0
-43 -2 -49 -10 -30 -5 13 -6 28 -3 34 4 6 3 13 -2 17 -5 3 -19 27 -31 54 -13
26 -30 47 -38 47 -8 0 -15 7 -15 16 0 11 6 14 20 9 25 -8 27 11 3 37 -24 27
-71 24 -84 -6 -10 -20 -8 -30 10 -55 19 -26 25 -29 46 -21 24 9 25 8 25 -38 0
-62 -42 -146 -90 -181 -28 -21 -32 -22 -20 -6 8 11 24 29 35 40 32 32 58 77
48 84 -4 4 -26 13 -48 20 -59 20 -65 28 -65 90 0 31 -4 73 -9 93 -8 33 -6 39
23 66 17 16 38 32 46 35 35 13 94 6 127 -14z m-1282 -99 c22 -21 46 -39 53
-40 6 0 12 -10 12 -22 0 -26 45 -80 74 -91 10 -4 16 -10 13 -14 -12 -11 -73
39 -105 86 l-32 45 0 -36 c0 -20 -4 -40 -10 -43 -6 -4 -10 9 -10 32 -1 23 -9
48 -21 63 l-21 25 -19 -24 c-10 -13 -19 -28 -19 -35 0 -14 27 -54 58 -86 27
-29 28 -40 2 -40 -12 0 -20 -7 -20 -17 0 -56 -68 -106 -127 -95 -31 6 -76 50
-69 67 6 17 -29 45 -59 46 -20 0 -20 0 0 9 31 13 45 12 45 -5 0 -8 3 -15 8
-15 4 0 22 -14 41 -30 54 -48 89 -36 115 39 14 42 14 46 -5 72 -10 15 -19 36
-19 48 0 30 21 71 37 71 7 0 16 7 19 15 9 22 15 19 59 -25z m-305 -257 c114
-64 71 -248 -63 -270 -28 -4 -49 1 -93 23 l-56 28 5 56 c5 60 30 118 71 167
23 27 29 30 63 23 21 -4 54 -16 73 -27z m-1350 -75 c71 -49 95 -116 66 -191
-21 -54 -75 -87 -143 -87 -112 0 -179 98 -139 203 32 86 143 124 216 75z
m3753 -39 c45 -47 65 -62 89 -63 40 -2 47 -22 13 -38 -22 -10 -32 -9 -58 4
-18 9 -57 17 -88 18 -44 1 -59 -3 -73 -19 -21 -23 -15 -74 8 -65 8 3 16 -3 19
-15 8 -33 51 -27 77 9 26 36 40 38 40 7 0 -34 -20 -56 -65 -71 -31 -11 -41
-20 -43 -40 -3 -21 -9 -26 -33 -26 -33 0 -38 16 -11 36 16 12 15 15 -16 46
-42 42 -49 31 -50 -72 0 -75 -19 -141 -44 -156 -5 -4 -22 6 -37 20 -15 14 -32
26 -38 26 -12 0 -63 -99 -63 -123 0 -10 5 -17 10 -17 21 0 9 -40 -16 -57 -26
-17 -27 -17 -66 25 -42 46 -77 54 -116 26 -35 -24 -29 -67 13 -101 39 -31 45
-62 15 -81 -11 -7 -20 -19 -20 -26 0 -25 -66 -87 -84 -80 -24 9 -20 28 14 57
17 15 30 32 30 37 0 18 -40 11 -73 -12 -18 -13 -33 -24 -35 -25 -2 -1 2 -11 8
-23 7 -13 9 -39 6 -64 -5 -32 -14 -46 -39 -63 -47 -33 -89 -30 -133 9 -28 25
-39 29 -52 21 -30 -18 -25 -55 13 -100 38 -44 44 -63 20 -63 -8 0 -24 -20 -35
-44 -34 -72 -88 -84 -164 -36 -75 48 -100 137 -52 185 28 28 73 42 94 29 23
-15 16 -28 -20 -36 -34 -7 -58 -31 -58 -59 0 -9 17 -36 38 -59 31 -35 45 -43
72 -43 20 0 38 7 46 18 18 24 17 93 -1 125 -19 33 -19 66 1 99 31 53 48 55 99
11 50 -43 87 -51 117 -23 30 27 22 61 -27 110 -47 46 -49 58 -9 73 13 5 24 16
24 24 0 13 70 76 84 76 7 0 -11 -34 -37 -69 -15 -21 -16 -27 -3 -39 17 -18 41
-10 84 27 40 34 37 57 -7 83 -35 19 -66 63 -56 78 5 8 14 6 31 -4 32 -22 43
-20 66 9 10 13 37 30 59 36 21 7 39 16 39 21 0 6 -13 22 -30 36 -16 15 -30 32
-30 38 0 17 60 67 98 83 17 7 34 22 38 33 5 16 12 19 32 14 32 -8 33 -8 97 2
l50 7 5 45 c7 55 15 70 40 70 12 0 22 12 30 35 13 39 27 49 83 59 20 4 37 9
37 12 0 8 -25 49 -44 72 -19 22 -19 22 4 22 16 0 43 -20 83 -61z m-1852 -330
c88 -44 190 -163 170 -197 -8 -13 -10 -13 -11 -2 0 10 -3 11 -11 3 -6 -6 -11
-31 -11 -55 2 -146 0 -193 -11 -200 -7 -4 -37 -9 -67 -10 -53 -1 -54 -2 -10
-5 68 -5 71 -7 59 -43 -17 -48 -101 -133 -158 -159 -49 -24 -51 -24 -71 -6
-19 18 -20 18 -20 -3 0 -23 0 -23 -80 -27 -57 -3 -114 15 -148 46 -17 16 -33
29 -35 29 -3 0 -10 -14 -17 -30 -10 -25 -10 -33 1 -47 30 -35 -26 5 -66 49
-37 39 -37 40 -4 10 l36 -33 11 26 c6 14 17 25 23 25 8 0 8 4 1 13 -7 8 -3 27
14 62 13 27 23 54 21 60 -3 5 -15 -11 -28 -37 -12 -27 -27 -48 -31 -48 -17 0
-52 51 -70 102 -17 51 -24 150 -12 182 4 10 19 16 38 17 29 0 30 1 9 11 -13 6
-23 18 -23 27 0 40 91 140 156 172 58 28 76 32 174 30 74 0 99 -7 152 -43 25
-17 29 -17 62 -2 l35 17 -22 20 c-33 29 -77 49 -93 43 -8 -3 -14 1 -14 9 0 19
3 19 51 -6z m-1224 -154 c-9 -22 135 -125 176 -125 9 0 19 -5 23 -12 5 -8 0
-9 -14 -6 -12 4 -22 2 -22 -4 0 -5 -4 -7 -9 -4 -5 3 -17 -6 -26 -20 -10 -15
-12 -23 -4 -19 9 6 11 3 6 -8 -4 -10 1 -18 14 -22 10 -4 19 -11 19 -17 0 -5
-16 -1 -36 11 -19 12 -46 21 -59 21 -46 0 -94 31 -104 67 -10 35 2 91 23 106
8 5 6 10 -4 17 -13 9 -13 11 0 20 20 13 23 12 17 -5z m-203 -286 c30 -35 33
-49 11 -49 -8 0 -15 -8 -15 -19 0 -10 -12 -40 -26 -66 -22 -42 -24 -52 -13
-77 9 -22 9 -31 -1 -43 -13 -16 -60 -21 -60 -6 0 4 -12 20 -26 35 -48 47 -124
26 -124 -35 0 -20 12 -39 40 -65 22 -21 40 -41 40 -46 0 -5 -11 -13 -25 -18
-14 -5 -25 -17 -25 -27 0 -23 -69 -93 -92 -93 -26 0 -22 18 12 57 54 61 30 74
-35 18 -37 -32 -38 -35 -23 -52 15 -17 16 -22 1 -66 -27 -82 -108 -103 -178
-47 -21 17 -43 29 -49 27 -6 -2 -12 -19 -14 -38 -3 -30 3 -40 38 -73 44 -40
47 -59 12 -64 -14 -2 -27 -16 -36 -36 -38 -90 -139 -87 -206 6 -38 52 -40 104
-6 141 30 32 70 43 102 28 33 -15 23 -28 -26 -36 -71 -12 -78 -68 -15 -124 58
-51 107 -37 121 35 5 28 1 42 -19 71 l-26 37 21 35 c12 20 27 44 32 53 18 31
35 28 81 -12 49 -43 84 -50 109 -24 27 26 19 67 -19 104 -19 19 -35 39 -35 46
0 7 12 26 28 43 87 96 95 109 84 141 -14 39 1 47 35 20 l26 -20 32 35 c24 25
41 35 63 35 17 0 37 7 46 15 8 9 28 14 46 13 65 -6 94 87 35 114 -36 16 -73 2
-97 -37 -22 -38 -35 -44 -45 -19 -8 20 61 91 97 99 15 3 39 1 53 -4 22 -9 27
-8 27 4 0 23 16 18 44 -16z m3703 -10 c50 -24 68 -48 77 -101 11 -61 -9 -114
-56 -148 -58 -43 -98 -47 -155 -19 -68 34 -96 79 -91 147 4 41 11 59 34 83 57
61 119 73 191 38z m-2837 -255 c0 -4 -9 -22 -21 -40 -25 -40 -20 -59 26 -104
57 -55 125 -40 125 28 0 36 24 21 28 -17 2 -18 -4 -43 -12 -56 -22 -34 -20
-41 7 -19 22 19 22 19 5 -1 -22 -26 -78 -59 -78 -46 0 6 6 11 14 11 8 0 18 5
21 10 4 7 -8 8 -34 4 -76 -12 -161 68 -161 152 0 41 14 68 40 77 21 8 40 8 40
1z m1240 -84 c72 -37 102 -139 60 -208 -54 -89 -175 -97 -250 -17 -21 23 -25
36 -25 90 0 73 18 106 75 136 45 24 91 24 140 -1z m-1335 -99 c18 -10 40 -38
56 -69 14 -29 30 -49 35 -44 4 4 3 0 -3 -8 -6 -8 -13 -31 -17 -51 -7 -41 -36
-72 -88 -94 -50 -20 -81 -19 -129 5 -95 49 -107 172 -26 249 45 42 111 46 172
12z m2407 -127 c54 -53 73 -65 93 -62 35 7 52 -6 35 -27 -9 -11 -27 -16 -54
-15 -66 3 -72 2 -58 -12 25 -25 7 -98 -23 -98 -8 0 -15 -4 -15 -9 0 -5 -12
-11 -27 -14 -16 -3 -32 -15 -38 -29 -8 -18 -20 -24 -55 -28 l-45 -5 -3 -45
c-2 -29 -11 -53 -24 -67 -26 -28 -40 -29 -63 -3 -28 31 -40 25 -75 -37 -32
-56 -32 -57 -15 -86 17 -29 17 -31 0 -44 -29 -20 -48 -16 -82 21 -41 43 -64
48 -102 25 -46 -28 -42 -67 12 -118 l42 -41 -25 -25 c-14 -14 -45 -50 -70 -79
-25 -30 -48 -55 -51 -55 -3 -1 -17 20 -31 46 l-26 47 45 65 c36 53 42 67 30
76 -20 15 -51 65 -44 72 4 3 18 -2 32 -11 22 -14 25 -14 25 -1 0 27 53 75 88
78 17 2 34 6 37 9 3 2 -11 20 -30 38 -19 19 -35 40 -35 47 0 19 40 53 88 74
26 11 46 28 49 40 4 16 11 19 27 14 30 -9 116 -6 138 6 14 7 18 21 18 59 0 46
2 49 28 52 20 2 30 11 37 33 16 47 23 54 71 66 49 13 53 22 24 59 -22 28 -26
50 -8 50 6 0 42 -30 80 -66z m-4033 -218 c15 -8 42 -31 60 -51 70 -80 23 -205
-90 -235 -68 -19 -159 37 -179 110 -32 118 102 231 209 176z m2228 -364 c3
-13 15 -18 45 -19 35 -2 39 0 35 17 -4 16 0 20 19 20 27 0 34 -27 9 -36 -14
-6 -14 -8 0 -18 9 -7 12 -19 9 -33 -5 -20 -13 -23 -51 -23 -42 0 -44 -1 -41
-27 3 -24 7 -28 32 -25 16 2 32 -2 37 -10 13 -20 11 -34 -3 -20 -7 7 -29 12
-51 12 l-38 0 3 53 c3 51 3 52 33 49 16 -2 35 -8 41 -13 15 -12 28 6 20 26 -4
12 -25 15 -87 15 -70 0 -80 -2 -75 -16 3 -9 6 -76 6 -150 l0 -134 71 0 c62 0
70 -2 59 -15 -7 -8 -27 -15 -44 -14 -30 1 -30 1 -6 10 18 6 5 8 -42 5 l-67 -4
6 67 c4 51 2 75 -11 99 -20 39 -20 56 -1 48 24 -9 19 44 -7 71 -18 20 -19 23
-5 23 9 0 17 5 17 10 0 6 14 10 30 10 23 0 30 4 30 20 0 25 20 26 27 2z
m-1340 -73 c-3 -27 -2 -49 3 -49 12 0 19 26 13 49 -4 15 -1 21 11 21 14 0 16
-17 16 -135 l0 -135 30 0 c17 0 30 -5 30 -11 0 -6 -16 -9 -37 -7 l-38 3 -3 88
c-2 64 -6 87 -15 84 -7 -2 -13 -26 -15 -53 -3 -39 -9 -53 -29 -68 -24 -18 -25
-18 -55 4 -34 25 -42 21 -77 -44 -23 -41 -24 -47 -11 -71 10 -19 11 -31 4 -43
-20 -31 -50 -25 -92 17 -22 23 -47 41 -55 41 -23 0 -77 -49 -77 -69 0 -9 18
-36 40 -59 22 -22 40 -46 40 -53 0 -6 -11 -20 -25 -31 -14 -11 -25 -26 -25
-33 0 -22 -63 -76 -85 -73 -28 4 -22 42 10 72 14 13 25 29 25 37 0 7 -18 -4
-40 -26 -21 -21 -37 -42 -34 -47 3 -5 -2 -36 -12 -70 -20 -66 -36 -78 -103
-78 -25 0 -50 9 -78 30 -35 26 -42 28 -53 15 -18 -22 -4 -64 36 -100 42 -39
43 -57 4 -72 -20 -7 -30 -18 -30 -31 0 -32 -46 -62 -95 -62 -37 0 -50 6 -90
43 -40 36 -48 49 -52 89 -5 44 -3 50 30 83 35 35 68 44 96 26 22 -14 5 -41
-27 -41 -37 0 -52 -17 -52 -56 0 -24 9 -40 40 -68 47 -43 63 -44 95 -11 32 31
32 69 0 120 -13 22 -25 43 -25 47 0 11 80 108 91 108 5 0 27 -18 49 -40 48
-48 90 -54 116 -15 20 31 12 56 -32 97 -38 36 -44 64 -14 73 11 3 20 11 20 16
0 5 12 19 26 32 14 12 35 34 45 49 17 23 18 30 7 47 -19 31 2 49 38 33 23 -11
29 -9 60 18 19 16 46 30 59 30 32 0 31 15 -2 58 -31 41 -27 52 38 99 24 18 53
41 65 52 24 24 37 26 64 9 15 -10 22 -10 32 0 6 6 28 12 48 12 44 0 69 23 77
74 8 53 25 32 20 -25z m2151 -121 c-2 -60 0 -108 4 -108 5 0 8 -11 8 -25 0
-26 -25 -45 -61 -45 -24 0 -69 -36 -69 -54 0 -6 10 -16 23 -21 15 -7 22 -19
23 -40 1 -16 5 -39 9 -51 5 -16 -1 -28 -23 -49 -26 -25 -29 -31 -20 -57 21
-60 -9 -128 -69 -153 -76 -32 -161 -12 -207 47 -21 28 -26 46 -26 90 0 40 4
57 15 62 11 4 15 23 15 81 l0 75 46 0 c52 0 74 -16 74 -54 0 -16 6 -26 15 -26
8 0 15 7 15 15 0 8 5 15 10 15 6 0 10 11 10 25 0 20 5 25 25 25 19 0 25 5 25
21 0 11 15 35 33 52 28 28 33 40 38 102 l6 70 1 -67 2 -68 33 0 32 0 -3 117
c-2 65 0 134 4 153 l8 35 4 -30 c2 -16 2 -78 0 -137z m216 -30 c-4 -7 -23 -34
-41 -60 l-35 -48 26 0 c14 0 26 4 26 8 0 5 14 28 31 52 l31 42 29 -51 c27 -46
33 -51 65 -51 32 0 34 2 24 21 -12 22 -8 35 8 25 5 -3 10 -17 10 -31 0 -23 -4
-25 -44 -25 -23 0 -45 4 -48 9 -4 5 -25 0 -47 -11 -32 -15 -52 -18 -85 -13
-24 3 -44 12 -44 18 0 7 -11 26 -25 42 -23 28 -24 29 -25 8 0 -12 -4 -25 -10
-28 -22 -14 -9 -57 30 -99 44 -47 48 -56 25 -56 -15 0 -55 -77 -55 -105 0 -22
-20 -28 -47 -14 -19 10 -23 18 -18 38 3 13 2 27 -3 30 -6 3 -12 22 -14 41 -3
33 -1 35 27 36 69 2 68 1 41 37 -35 46 -33 80 8 124 l33 36 23 -21 c30 -28 46
-28 61 1 12 23 39 57 46 57 2 0 1 -6 -3 -12z m-1524 -25 c0 -23 59 -83 82 -83
21 0 26 -46 6 -53 -7 -2 2 -11 20 -21 17 -9 32 -21 32 -26 0 -6 6 -10 14 -10
8 0 17 -7 20 -16 5 -14 8 -14 28 0 12 9 39 16 59 16 33 0 38 -4 48 -31 17 -48
13 -80 -11 -101 -56 -48 -119 -24 -129 50 -3 23 -9 45 -13 49 -9 9 -26 -16
-26 -38 0 -9 -7 -22 -15 -29 -8 -7 -15 -18 -15 -26 0 -13 -30 -34 -49 -34 -7
0 -8 17 -4 46 3 27 2 45 -3 42 -5 -2 -24 -11 -41 -18 -23 -10 -33 -21 -33 -37
0 -14 -6 -22 -17 -21 -10 0 -33 -3 -51 -5 -26 -5 -38 0 -58 20 -21 21 -25 32
-20 61 8 51 32 72 81 72 33 0 47 6 70 30 28 29 55 39 55 21 0 -4 -13 -24 -30
-42 -31 -36 -35 -46 -22 -67 14 -21 41 -3 39 26 -2 25 1 27 45 32 l48 5 -56
62 c-30 35 -53 67 -50 72 3 5 -1 14 -9 21 -17 14 -20 50 -5 50 6 0 10 -8 10
-17z m2488 -202 c39 -27 67 -98 59 -148 -16 -95 -116 -156 -203 -123 -28 11
-74 54 -74 70 0 4 -5 10 -11 12 -7 2 -12 28 -13 61 -1 68 20 101 85 135 53 28
112 25 157 -7z m-2801 -13 c-1 -14 4 -23 16 -26 13 -3 17 3 17 22 0 20 5 26
23 26 21 0 22 -4 22 -74 0 -64 -3 -76 -18 -80 -13 -3 -19 3 -24 25 -7 38 -36
35 -43 -4 -4 -25 -7 -27 -23 -14 -14 9 -19 26 -19 58 -1 86 0 89 27 89 20 0
24 -5 22 -22z m816 -3 c10 -15 13 -26 7 -30 -6 -4 -7 -13 -1 -23 5 -9 8 -28 6
-42 -4 -52 -115 -48 -135 5 -12 31 -2 86 19 102 28 22 84 15 104 -12z m183 11
c17 -18 18 -40 2 -66 -10 -16 -10 -24 0 -40 27 -43 3 -54 -42 -19 -20 16 -26
17 -26 6 0 -17 -19 -26 -37 -20 -14 5 -19 134 -6 146 12 13 94 7 109 -7z
m-2528 -520 c117 -61 126 -211 16 -273 -55 -32 -102 -30 -152 7 -58 42 -76 80
-67 145 6 53 36 94 90 123 28 16 81 15 113 -2z m3775 -52 c61 -58 73 -65 98
-60 34 7 41 -17 10 -34 -28 -14 -52 -13 -72 6 -10 9 -39 16 -72 17 -46 2 -60
-2 -81 -22 -35 -33 -33 -54 9 -85 33 -25 36 -26 64 -11 16 8 32 24 36 35 8 25
35 26 35 1 0 -46 -82 -101 -130 -86 -11 3 -31 25 -44 48 -21 36 -24 48 -16 81
11 51 20 58 79 64 58 5 63 17 25 53 -37 35 -49 59 -28 59 9 0 48 -30 87 -66z
m845 -182 c2 -7 -1 -12 -7 -12 -6 0 -11 -13 -11 -28 0 -47 -14 -52 -137 -52
l-113 0 0 25 c0 14 -4 25 -10 25 -5 0 -10 -11 -10 -25 0 -21 -5 -25 -30 -25
-20 0 -30 5 -30 15 0 8 -5 15 -10 15 -7 0 -7 6 0 19 5 11 10 26 10 33 0 7 -7
0 -16 -17 -8 -16 -13 -37 -11 -47 4 -15 -1 -18 -34 -18 l-39 0 0 48 c0 27 2
51 5 53 2 3 102 4 221 4 162 0 219 -4 222 -13z"/>
<path d="M2418 2902 c-10 -2 -18 -5 -18 -7 0 -2 16 -32 36 -67 21 -34 53 -91
72 -125 20 -35 39 -63 42 -63 14 0 107 175 99 186 -30 38 -178 87 -231 76z"/>
<path d="M2304 2876 c-59 -26 -172 -145 -158 -167 7 -11 307 -12 302 -1 -11
28 -103 182 -107 182 -3 -1 -20 -7 -37 -14z"/>
<path d="M2470 2701 c0 -5 -25 -13 -57 -17 -54 -9 -57 -11 -70 -49 -7 -21 -17
-42 -21 -45 -4 -3 -12 -14 -19 -26 -10 -19 -9 -20 10 -17 18 3 27 -5 47 -43
23 -44 25 -46 30 -23 6 31 58 99 76 99 26 0 22 -17 -12 -54 -19 -20 -34 -39
-34 -42 0 -2 15 -4 33 -4 35 1 58 14 75 46 10 18 5 26 -33 64 -44 44 -57 70
-33 70 7 0 25 -15 40 -32 35 -41 38 -18 7 42 -19 37 -39 53 -39 31z"/>
<path d="M2640 2690 c-7 -13 -6 -20 3 -23 7 -4 6 -6 -5 -6 -20 -1 -72 -87 -62
-104 4 -6 4 -9 -1 -5 -8 7 -34 -19 -35 -34 0 -5 47 -8 104 -8 112 0 116 2 116
59 0 19 -16 43 -55 84 -50 51 -56 54 -65 37z"/>
<path d="M2127 2653 c-4 -3 -7 -36 -7 -72 1 -68 15 -122 45 -167 l17 -27 74
126 c41 69 74 131 74 136 0 12 -192 16 -203 4z"/>
<path d="M2282 2463 c-76 -131 -77 -115 10 -162 41 -23 74 -33 118 -35 34 -3
60 0 60 5 0 11 -140 259 -146 259 -2 0 -21 -30 -42 -67z"/>
<path d="M2430 2456 c0 -3 16 -33 35 -68 20 -35 41 -73 47 -85 15 -30 35 -29
89 6 56 36 129 117 129 143 0 5 -67 8 -150 8 -82 0 -150 -2 -150 -4z"/>
</g>
</svg>
