<?xml version="1.0" standalone="no"?>
<!DOCTYPE svg PUBLIC "-//W3C//DTD SVG 20010904//EN"
 "http://www.w3.org/TR/2001/REC-SVG-20010904/DTD/svg10.dtd">
<svg version="1.0" xmlns="http://www.w3.org/2000/svg"
 width="47.000000pt" height="47.000000pt" viewBox="0 0 47.000000 47.000000"
 preserveAspectRatio="xMidYMid meet">
<metadata>
Created by potrace 1.16, written by Peter Selinger 2001-2019
</metadata>
<g transform="translate(0.000000,47.000000) scale(0.005222,-0.004590)"
fill="#000000" stroke="none">
<path d="M4099 10136 c-2 -2 -54 -7 -116 -11 -61 -3 -122 -8 -135 -10 -13 -2
-48 -6 -79 -10 -31 -3 -66 -7 -77 -10 -11 -2 -35 -6 -53 -9 -19 -3 -51 -8 -73
-11 -21 -4 -48 -9 -60 -11 -11 -2 -34 -7 -51 -10 -169 -30 -465 -116 -635
-184 -358 -143 -698 -358 -963 -610 -99 -94 -134 -145 -140 -207 -5 -51 8 -48
18 3 16 89 352 376 650 557 166 100 414 215 620 286 86 30 114 38 285 82 89
23 247 56 310 64 25 3 70 10 100 16 201 36 739 51 1025 29 735 -58 1446 -241
2031 -524 182 -89 339 -185 417 -258 63 -59 60 -44 -5 25 -113 119 -412 280
-808 435 -194 76 -580 194 -714 218 -16 3 -32 7 -36 9 -4 2 -22 7 -41 10 -19
3 -41 8 -49 10 -8 2 -26 6 -40 9 -14 3 -36 7 -50 10 -13 3 -40 8 -60 11 -20 3
-47 7 -60 10 -13 3 -40 7 -60 10 -20 3 -45 7 -55 9 -28 5 -113 17 -154 22 -19
2 -48 5 -65 8 -17 3 -67 8 -111 11 -44 4 -93 9 -110 12 -38 6 -650 15 -656 9z"/>
<path d="M3434 8396 c1 -9 5 -18 8 -22 11 -10 -3 -34 -16 -27 -6 3 -2 -3 8
-15 20 -23 10 -30 -14 -9 -8 6 -7 3 3 -9 9 -11 14 -24 11 -27 -4 -4 -13 1 -21
11 -12 16 -13 16 -6 -2 4 -12 3 -17 -4 -13 -5 3 -10 1 -11 -6 -2 -24 -8 -47
-15 -53 -4 -4 -7 -17 -7 -28 0 -17 -2 -18 -10 -6 -5 8 -10 11 -10 5 0 -5 4
-16 9 -24 7 -11 12 -6 19 20 8 28 10 30 11 10 1 -13 4 -21 8 -17 11 11 12 36
2 36 -6 0 -7 5 -3 11 4 8 9 7 16 -2 7 -11 8 -10 4 4 -4 12 -2 16 6 11 6 -4 8
-3 5 3 -3 5 5 26 18 45 18 26 21 38 13 46 -7 7 -9 14 -6 18 4 3 13 -7 22 -23
14 -28 13 -31 -9 -59 -13 -16 -21 -33 -18 -38 4 -5 1 -6 -5 -2 -16 10 -15 -6
1 -24 10 -12 9 -12 -5 -1 -10 7 -19 11 -19 7 -2 -10 -6 -25 -9 -33 -1 -5 -2
-12 -1 -17 1 -5 -4 -4 -13 3 -12 10 -16 8 -21 -9 -6 -20 -7 -20 -26 2 -12 13
-17 16 -13 8 12 -21 15 -52 9 -68 -5 -12 -8 -12 -23 2 -24 21 -38 21 -17 0 14
-15 14 -18 0 -34 -8 -9 -12 -21 -8 -26 5 -5 -2 0 -14 10 -21 17 -23 18 -29 2
-5 -14 -9 -15 -16 -4 -6 8 -7 5 -2 -12 6 -23 6 -24 -11 -10 -17 14 -17 14 -4
-7 12 -20 11 -25 -14 -51 -15 -16 -24 -32 -20 -37 5 -4 2 -5 -4 -1 -8 4 -13 2
-13 -6 0 -9 -3 -9 -10 2 -9 13 -10 13 -11 0 -1 -8 -1 -19 0 -23 1 -5 -3 -6 -8
-3 -9 6 -26 -22 -22 -37 1 -5 -3 -6 -9 -2 -7 4 -2 17 11 36 15 21 18 34 11 41
-7 7 -10 4 -9 -8 1 -11 -4 -18 -11 -16 -8 1 -11 -2 -7 -8 4 -6 1 -17 -5 -25
-10 -12 -10 -19 1 -32 13 -15 12 -15 -8 -3 -12 8 -19 18 -16 24 3 5 1 6 -6 2
-6 -4 -9 -11 -6 -16 5 -8 -13 -25 -27 -25 -5 0 -8 -3 -8 -7 0 -5 0 -11 0 -15
0 -3 12 4 27 18 20 17 23 18 10 3 -9 -11 -14 -24 -10 -29 5 -4 3 -5 -4 -1 -6
3 -17 -2 -23 -11 -11 -17 -11 -17 -6 0 3 9 1 17 -4 17 -6 0 -11 -7 -11 -15 -1
-15 -4 -28 -9 -42 -1 -5 -2 -12 -1 -16 1 -5 -3 -6 -9 -2 -6 3 -8 10 -6 14 3 4
-1 8 -9 8 -11 0 -12 -5 -3 -20 6 -13 7 -17 0 -13 -6 3 -20 -6 -31 -20 -12 -15
-21 -21 -21 -13 0 12 -2 12 -9 0 -5 -8 -7 -21 -4 -30 4 -14 3 -14 -6 -1 -6 8
-11 11 -11 6 0 -5 -6 -3 -13 3 -19 15 -30 1 -14 -18 11 -14 10 -14 -6 -2 -9 8
-15 16 -13 19 3 2 1 12 -4 22 -8 15 -4 17 30 15 31 -1 37 1 33 14 -4 14 -3 14
6 1 9 -12 11 -11 8 7 -2 12 -7 26 -11 30 -4 5 -6 3 -4 -4 2 -6 -1 -11 -7 -11
-5 0 -9 5 -7 11 2 7 -2 6 -11 -1 -8 -7 -17 -9 -21 -5 -4 4 -4 -1 0 -12 7 -18
6 -19 -10 -6 -14 12 -17 12 -14 1 4 -19 -32 -19 -57 0 -18 14 -19 14 -6 -2 13
-18 13 -19 -11 -22 -7 0 -14 -10 -15 -21 -3 -18 -2 -18 5 -2 6 15 9 13 19 -13
8 -21 8 -32 1 -37 -6 -3 -8 -2 -5 3 3 6 2 16 -4 24 -7 12 -9 11 -10 -5 -1 -11
-1 -24 1 -30 1 -5 -7 -2 -18 8 -16 15 -21 15 -30 4 -9 -10 -8 -17 1 -27 6 -8
2 -6 -10 4 -24 20 -32 10 -10 -14 10 -12 9 -12 -3 -4 -21 14 -39 12 -51 -6
-10 -13 -10 -13 -6 0 2 8 1 24 -4 35 -7 18 -8 17 -10 -7 -2 -41 -3 -46 -10
-52 -3 -3 -4 12 -3 35 2 38 1 39 -15 25 -10 -9 -20 -15 -22 -14 -2 2 -1 -1 3
-6 3 -5 4 -16 1 -25 -4 -13 -3 -14 5 -1 6 8 9 17 6 21 -2 4 1 11 7 15 9 5 10
0 5 -17 -4 -13 -8 -29 -8 -36 -1 -7 -6 -9 -11 -6 -6 4 -8 0 -4 -10 9 -24 0
-21 -14 4 -6 12 -7 19 -1 15 6 -4 8 2 5 14 -3 11 -9 22 -13 25 -5 3 -6 -3 -3
-13 2 -10 -3 -24 -11 -31 -18 -15 -22 -1 -6 15 7 7 6 11 -4 11 -8 0 -13 -3
-11 -7 6 -10 -25 -51 -34 -45 -14 8 -43 -32 -38 -52 4 -15 5 -15 6 3 0 12 8
27 16 34 19 16 19 10 0 -26 -11 -22 -12 -31 -2 -43 11 -14 10 -14 -5 -2 -18
13 -19 12 -22 -11 0 -6 -9 -12 -19 -14 -9 -1 -15 2 -11 7 3 5 1 9 -5 9 -5 0
-11 -8 -14 -17 -3 -14 -4 -13 -3 2 1 13 8 19 18 19 10 -1 15 2 13 6 -11 18
-41 6 -43 -17 -1 -12 -3 -28 -4 -35 -2 -7 3 -12 10 -10 8 1 11 -2 7 -8 -5 -8
-12 -7 -22 2 -9 7 -17 11 -19 8 -1 -3 -6 -1 -11 3 -4 5 -1 7 7 5 8 -2 15 5 16
18 0 12 -5 21 -13 21 -9 0 -10 -4 -3 -11 16 -16 12 -30 -6 -16 -12 11 -15 11
-12 -1 2 -8 -2 -13 -8 -12 -14 3 -7 -33 9 -57 9 -12 9 -13 -3 -3 -21 19 -45
-4 -28 -26 10 -14 10 -14 -2 -3 -12 10 -18 9 -32 -10 -16 -21 -18 -21 -12 -3
5 20 5 20 -10 1 -8 -10 -13 -23 -10 -28 3 -5 0 -7 -8 -6 -7 2 -13 -5 -13 -14
0 -9 -4 -19 -8 -22 -4 -3 -5 -3 -2 0 6 9 -15 47 -22 40 -4 -3 -13 0 -21 7 -10
7 -13 8 -9 1 4 -7 0 -17 -8 -24 -8 -7 -15 -20 -14 -29 0 -12 2 -11 9 4 l9 20
0 -20 c1 -16 3 -17 11 -5 6 9 5 17 -2 21 -7 4 -7 9 1 13 6 4 11 1 11 -6 0 -9
3 -9 10 2 7 12 9 10 7 -7 0 -12 -4 -20 -8 -17 -4 2 -10 -3 -13 -12 -4 -9 -9
-14 -13 -10 -3 3 -15 -1 -25 -11 -10 -9 -18 -12 -18 -8 0 4 -8 1 -18 -8 -17
-15 -18 -15 -19 6 0 12 1 16 4 9 3 -6 9 -9 15 -6 6 4 5 10 -3 16 -11 8 -10 8
4 4 21 -7 35 20 19 36 -8 8 -9 5 -5 -11 4 -17 2 -20 -11 -15 -9 3 -13 11 -9
18 3 6 2 7 -3 3 -5 -5 -10 -13 -10 -18 -3 -22 -5 -23 -14 -9 -7 11 -10 11 -10
2 0 -7 -5 -10 -10 -7 -6 4 -7 11 -4 17 4 7 2 8 -5 4 -9 -6 -9 -11 -1 -21 9
-10 7 -20 -5 -39 -20 -31 -30 -35 -15 -6 6 11 7 20 1 20 -10 0 -25 -30 -22
-43 1 -5 -3 -6 -9 -2 -6 3 -8 9 -6 13 2 4 -2 16 -10 27 -8 10 -14 14 -14 8 0
-6 -11 -9 -25 -8 -13 2 -23 0 -22 -3 1 -4 -2 -8 -8 -9 -5 -2 -10 1 -10 6 0 5
-3 12 -8 15 -4 3 -5 3 -2 -1 3 -3 0 -12 -7 -20 -9 -11 -14 -11 -32 4 -21 18
-21 18 -3 -3 16 -20 17 -22 0 -35 -15 -12 -16 -12 -10 3 3 10 2 20 -4 23 -5 4
-9 3 -8 -2 3 -20 -2 -34 -11 -28 -6 4 -7 12 -4 18 4 7 3 8 -2 4 -5 -5 -10 -13
-10 -18 -4 -30 -6 -32 -14 -14 -7 15 -9 16 -9 4 -1 -12 -9 -16 -31 -14 -16 1
-29 0 -28 -4 0 -3 0 -15 -1 -26 -1 -16 -3 -17 -10 -5 -6 8 -7 18 -4 24 3 5 1
6 -5 2 -6 -4 -9 -14 -6 -24 5 -14 3 -14 -10 2 -9 11 -16 15 -16 10 0 -6 4 -14
10 -20 6 -6 6 -15 0 -24 -8 -13 -10 -13 -10 2 0 9 -4 20 -10 23 -5 3 -7 0 -4
-9 3 -8 -1 -25 -10 -38 -9 -12 -16 -27 -16 -33 1 -5 7 1 15 15 9 15 14 19 15
10 0 -9 8 -3 19 13 11 18 20 24 23 16 2 -7 12 4 22 24 20 44 28 47 21 10 -4
-23 -4 -25 4 -8 9 18 10 17 8 -7 -1 -15 -6 -24 -11 -21 -5 4 -7 -1 -3 -10 3
-9 2 -19 -3 -22 -4 -3 -7 6 -5 20 1 14 -2 25 -6 25 -9 0 -13 -15 -10 -33 1 -5
-3 -6 -9 -2 -9 5 -15 -15 -11 -38 1 -5 -3 -6 -8 -3 -5 3 -7 16 -5 29 3 14 -1
11 -11 -10 -18 -38 -25 -42 -18 -10 4 20 3 20 -7 4 -6 -9 -16 -14 -22 -11 -8
5 -9 1 -5 -12 7 -18 6 -18 -7 -1 -11 14 -15 15 -20 5 -3 -7 -3 -3 -1 9 3 12 1
24 -4 28 -6 3 -8 0 -5 -8 6 -16 -31 -18 -55 -3 -11 7 -12 6 -5 -5 18 -29 12
-42 -9 -18 -12 14 -18 19 -14 12 10 -14 0 -36 -13 -28 -5 3 -11 1 -15 -5 -8
-13 -25 -3 -25 13 0 8 3 8 9 -2 6 -9 11 -10 15 -2 4 6 13 8 19 4 7 -4 6 0 -2
10 -15 18 -26 23 -16 7 3 -5 1 -10 -4 -10 -6 0 -11 6 -11 13 -1 6 -8 1 -16
-13 -13 -21 -15 -22 -11 -4 4 18 -1 20 -41 19 -31 0 -47 -5 -50 -15 -3 -13 -2
-13 8 0 8 10 10 11 8 2 -5 -21 -23 -14 -22 8 0 11 -2 18 -4 15 -3 -3 -12 1
-21 8 -14 11 -14 10 -2 -5 7 -10 11 -25 7 -34 -6 -17 -26 -10 -26 9 0 7 4 6
10 -3 5 -8 10 -10 10 -4 0 6 -9 19 -20 29 -19 17 -19 16 -14 -11 5 -28 4 -28
-10 -9 -8 11 -13 22 -11 26 2 3 -2 6 -10 6 -8 0 -11 -5 -8 -10 4 -7 -1 -8 -12
-3 -14 5 -16 4 -7 -7 9 -10 9 -14 -1 -14 -7 0 -14 9 -14 20 -1 11 -6 24 -11
29 -6 6 -8 0 -5 -15 3 -14 0 -28 -6 -31 -7 -4 -9 -1 -5 8 3 8 1 23 -6 33 -10
16 -10 16 -5 -4 3 -12 1 -24 -4 -28 -7 -4 -8 1 -4 12 6 15 4 16 -8 6 -12 -10
-15 -8 -16 10 -2 17 0 19 7 7 5 -8 10 -10 10 -4 0 6 -8 18 -17 25 -9 8 -14 10
-11 4 3 -5 2 -19 -3 -30 -7 -19 -8 -19 -10 3 -3 36 -4 40 -11 47 -4 4 -5 -8
-3 -27 l4 -33 -14 35 -14 35 4 -34 c4 -34 4 -34 -16 -15 -10 11 -20 31 -21 46
-1 15 -7 26 -13 25 -5 -1 -9 4 -7 11 1 8 -2 11 -8 7 -6 -3 -8 -11 -5 -16 4 -5
0 -9 -7 -9 -11 0 -10 -2 0 -9 11 -6 10 -10 -4 -15 -10 -4 -15 -4 -11 0 4 4 2
13 -4 21 -10 11 -15 11 -28 1 -14 -12 -14 -11 -2 5 15 19 2 23 -18 5 -7 -7
-12 -8 -11 -3 5 21 0 36 -10 30 -6 -3 -7 1 -4 9 6 16 25 23 23 9 -3 -21 2 -33
12 -28 5 4 18 0 28 -9 15 -14 17 -13 18 7 2 15 0 18 -6 8 -10 -16 -20 -3 -16
22 2 9 -1 15 -6 11 -5 -3 -7 -10 -4 -15 10 -16 -4 -10 -24 10 -15 15 -16 22
-7 32 9 11 8 11 -6 1 -14 -11 -19 -9 -34 17 -18 30 -39 25 -27 -6 5 -12 7 -12
15 -1 7 10 8 8 4 -5 -4 -12 -2 -16 6 -11 7 5 8 3 3 -6 -6 -9 -4 -11 5 -5 9 6
11 4 5 -5 -6 -9 -4 -11 5 -5 9 5 11 4 6 -4 -6 -8 -12 -9 -20 -2 -7 6 -16 7
-20 3 -4 -4 -6 0 -4 8 1 8 -2 14 -9 13 -6 -2 -21 8 -31 22 -11 13 -22 22 -24
19 -10 -10 -2 32 10 54 10 18 10 22 0 20 -7 -2 -12 3 -10 10 1 6 -4 11 -10 10
-7 -2 -12 3 -10 10 1 8 -2 11 -9 6 -9 -5 -10 -2 -6 10 4 9 3 15 -2 11 -6 -3
-14 2 -19 11 -8 15 -10 15 -15 0 -4 -10 -3 -15 3 -11 6 4 7 -2 4 -12 -5 -15
-4 -16 6 -3 10 13 11 12 6 -3 -4 -12 -2 -16 6 -11 7 5 8 3 3 -6 -6 -9 -4 -11
5 -5 9 6 11 4 5 -5 -5 -9 -4 -11 3 -6 7 4 10 2 9 -6 -2 -7 -2 -10 0 -5 6 9 23
-1 23 -14 0 -6 -4 -7 -10 -4 -9 6 -14 -8 -11 -28 1 -5 -3 -6 -9 -2 -6 3 -8 10
-5 15 8 14 -14 52 -26 45 -5 -4 -8 -1 -7 7 2 7 -2 12 -9 11 -8 -2 -10 4 -6 14
4 11 3 14 -6 9 -6 -4 -11 -4 -10 1 4 22 -2 44 -11 38 -5 -3 -7 -13 -4 -23 4
-13 2 -12 -8 3 -7 11 -14 34 -14 50 -1 17 -4 40 -7 53 -3 12 -2 20 3 17 5 -3
12 0 16 6 5 8 3 9 -6 4 -9 -6 -11 4 -9 43 2 28 0 47 -4 43 -16 -16 -16 -212
-1 -291 41 -215 149 -423 296 -570 94 -94 149 -120 252 -120 142 0 392 61 595
144 35 14 67 24 69 21 3 -3 0 -5 -7 -5 -7 0 -9 -4 -6 -10 4 -6 -1 -7 -11 -3
-12 4 -15 3 -10 -5 5 -8 1 -10 -11 -5 -16 6 -17 5 -3 -13 11 -15 11 -16 0 -6
-17 15 -40 16 -40 1 0 -5 4 -8 9 -4 5 3 13 1 16 -5 4 -6 1 -9 -6 -8 -7 2 -13
-2 -14 -9 0 -7 -7 -18 -15 -25 -12 -11 -12 -11 -2 4 8 9 9 19 4 22 -5 3 -15
-8 -22 -24 -7 -17 -15 -29 -17 -26 -9 9 28 66 39 60 7 -4 8 -3 4 4 -10 16 -29
6 -48 -28 -14 -24 -14 -32 -4 -42 14 -14 10 -42 -5 -32 -5 3 -9 0 -9 -5 0 -6
9 -11 19 -11 11 0 23 -5 26 -10 4 -6 11 -7 17 -4 6 4 8 -6 5 -30 -3 -20 -1
-33 4 -30 5 3 9 -1 9 -8 0 -8 5 -6 11 5 6 10 8 28 6 40 -4 18 -5 17 -6 -6 0
-16 -5 -26 -10 -22 -6 3 -6 17 -1 35 5 17 7 31 4 31 -2 1 -13 2 -23 3 -11 0
-22 4 -26 7 -3 4 8 5 26 4 17 -2 35 -8 39 -15 5 -9 9 -9 14 -1 4 6 1 14 -8 17
-8 3 -12 12 -9 21 5 13 2 13 -15 4 -16 -9 -20 -8 -18 4 1 8 8 21 16 28 12 10
12 9 2 -4 -10 -14 -7 -16 25 -17 20 -1 41 -6 46 -11 5 -5 -2 -7 -17 -4 -15 3
-26 1 -26 -6 0 -5 6 -8 13 -5 8 3 20 -3 27 -13 12 -15 12 -16 0 -5 -8 6 -18
12 -23 12 -4 0 -5 -6 0 -12 12 -20 12 -37 1 -45 -6 -3 -8 -1 -4 5 3 6 2 13 -4
17 -6 4 -10 -5 -10 -20 0 -31 -18 -68 -29 -61 -4 3 -13 -11 -20 -30 -7 -18
-17 -34 -23 -34 -6 0 -5 6 2 15 11 13 11 18 0 28 -10 9 -11 9 -6 0 4 -7 4 -19
-1 -25 -8 -13 -9 -18 -12 -39 0 -5 -6 -7 -13 -3 -6 4 -8 3 -4 -4 3 -6 -1 -18
-10 -26 -8 -9 -12 -16 -9 -16 4 0 -6 -17 -22 -37 -87 -113 -296 -454 -293
-478 1 -3 -19 -44 -45 -90 -44 -80 -145 -300 -145 -314 0 -3 33 59 73 139 266
533 643 969 1127 1302 342 236 742 419 1120 513 285 70 436 92 723 105 390 17
775 -23 1101 -116 109 -31 124 -26 21 7 -41 13 -75 27 -75 30 0 4 -10 5 -22 1
-13 -3 -19 -1 -15 6 4 5 15 9 25 7 9 -1 22 2 29 7 7 6 14 5 18 -2 5 -8 10 -8
20 0 8 7 15 7 19 1 4 -5 18 -7 32 -5 23 4 26 2 21 -16 -3 -11 -1 -18 4 -14 5
3 9 13 9 22 1 16 1 16 11 0 6 -11 16 -15 26 -11 12 5 14 3 8 -8 -7 -11 -6 -12
6 -2 12 10 18 10 29 0 10 -9 11 -9 6 1 -4 6 -2 12 4 12 6 0 8 5 4 12 -5 7 -3
8 5 4 7 -5 10 -14 8 -20 -3 -8 5 -12 27 -10 17 1 31 3 31 4 0 1 9 3 20 5 11 3
26 -3 33 -12 9 -13 12 -14 12 -2 1 10 3 9 11 -3 5 -10 15 -18 22 -18 7 0 6 4
-3 10 -11 8 -8 9 15 6 17 -2 31 -5 33 -6 1 -2 7 -4 12 -5 6 -1 13 -4 18 -5 4
-1 10 -2 15 -1 4 0 7 -5 7 -11 0 -9 4 -8 10 2 8 12 10 12 10 -5 0 -17 2 -17
10 -5 7 11 10 11 10 2 0 -7 5 -10 10 -7 6 3 10 0 10 -7 0 -9 3 -9 10 2 7 11
10 11 10 2 0 -8 5 -10 12 -6 8 5 9 2 4 -11 -5 -15 -4 -16 9 -5 13 11 18 11 28
0 10 -10 9 -11 -2 -5 -10 6 -12 4 -7 -4 6 -9 11 -9 22 0 11 9 14 9 14 -1 0 -7
7 -10 15 -6 9 3 18 -1 21 -8 3 -8 14 -16 25 -19 13 -3 17 -1 12 6 -4 7 1 6 10
-2 9 -7 17 -10 17 -5 0 5 10 -2 21 -16 11 -14 18 -19 14 -13 -7 14 20 8 43
-10 6 -5 12 -6 12 -2 0 4 7 2 15 -5 8 -7 12 -17 8 -24 -4 -6 2 -4 12 4 17 14
18 13 12 -5 -7 -20 -7 -20 8 -1 12 16 15 16 15 4 0 -8 10 -23 23 -34 l22 -19
-20 24 -20 24 25 -14 c14 -7 28 -13 32 -14 3 0 10 -4 15 -9 4 -5 3 -6 -4 -2
-6 3 -14 2 -17 -3 -7 -10 13 -9 30 2 7 4 18 -1 25 -10 12 -14 12 -16 0 -8 -10
6 -12 4 -6 -4 5 -10 10 -10 19 -1 8 8 18 2 39 -22 16 -18 26 -28 23 -22 -3 7
1 14 9 17 9 4 12 1 9 -7 -3 -7 3 -19 13 -27 16 -13 17 -12 4 4 -12 15 -12 17
3 11 9 -3 16 -11 16 -17 0 -6 3 -7 7 -4 3 4 15 -1 26 -10 12 -11 17 -12 12 -4
-5 10 -4 12 3 7 7 -4 12 -14 12 -22 0 -9 -5 -12 -12 -8 -7 5 -8 3 -3 -6 6 -10
11 -9 21 5 13 18 15 18 39 -5 14 -13 25 -19 25 -14 1 5 8 -4 16 -20 11 -19 19
-25 26 -18 13 13 58 -13 58 -33 0 -7 8 -19 18 -26 14 -11 15 -11 5 1 -7 8 -13
21 -13 30 1 12 3 12 11 -3 6 -9 14 -15 20 -12 5 4 6 -2 2 -11 -4 -11 -3 -15 5
-10 6 3 15 -2 21 -11 7 -12 10 -13 11 -4 0 9 5 7 18 -6 9 -10 13 -12 7 -3 -6
10 -2 9 12 -4 13 -10 20 -22 18 -27 -3 -4 0 -11 6 -15 8 -4 9 -3 5 4 -11 19 5
14 21 -5 8 -11 11 -12 7 -3 -7 12 -5 13 8 3 8 -7 19 -9 24 -5 4 4 2 -1 -5 -11
-12 -15 -12 -17 4 -11 12 5 16 4 11 -4 -3 -6 -1 -14 5 -18 8 -5 9 -3 4 6 -5 8
-3 11 6 8 8 -3 13 -11 11 -17 -1 -7 2 -9 8 -6 6 4 20 -1 31 -11 10 -9 29 -22
42 -29 12 -6 21 -17 19 -24 -1 -7 2 -10 6 -7 13 8 54 -29 44 -39 -4 -5 -1 -5
5 -1 8 4 27 -8 50 -31 20 -21 30 -29 23 -18 -8 11 0 7 20 -10 18 -16 45 -40
59 -52 14 -13 61 -56 103 -97 43 -40 80 -71 83 -68 3 3 5 1 5 -5 0 -6 36 -47
79 -92 44 -44 78 -81 76 -81 -2 0 20 -24 50 -53 30 -30 55 -58 55 -64 0 -6 7
-14 16 -17 9 -3 12 -11 8 -18 -4 -7 -4 -10 1 -6 5 5 15 -1 22 -12 8 -11 18
-18 23 -15 5 3 7 -3 5 -14 -3 -14 1 -18 11 -14 8 3 14 1 12 -5 -4 -13 49 -62
57 -53 4 3 5 -1 3 -9 -2 -8 2 -14 9 -13 7 2 10 -3 7 -11 -3 -7 6 -23 20 -33
14 -11 22 -24 18 -28 -4 -3 0 -5 8 -3 8 2 14 -3 12 -10 -1 -8 2 -11 7 -8 5 4
14 -1 19 -10 8 -15 10 -15 15 0 5 11 3 15 -5 10 -7 -5 -8 -3 -3 6 5 7 4 11 -1
8 -5 -4 -26 9 -48 27 -28 23 -35 34 -26 40 8 5 11 4 6 -3 -6 -11 31 -38 46
-34 5 1 7 -1 5 -6 -1 -4 3 -9 8 -10 20 -7 34 -24 29 -36 -3 -7 2 -18 10 -25
12 -10 14 -8 12 13 -2 14 -7 31 -12 38 -11 16 -11 39 0 57 6 9 5 12 -1 8 -6
-4 -14 0 -17 9 -3 8 -2 12 4 9 6 -4 5 5 -1 19 -7 14 -16 23 -20 20 -5 -3 -6 3
-2 12 5 13 3 15 -7 9 -8 -5 -11 -4 -7 2 6 9 -46 113 -97 197 -58 94 -162 252
-171 258 -6 5 -6 8 0 8 6 0 2 5 -7 11 -10 5 -18 17 -18 24 0 8 -5 15 -11 15
-5 0 -7 5 -4 10 3 6 -2 10 -12 11 -10 0 -13 3 -6 6 8 3 4 13 -12 29 -14 14
-25 29 -25 35 0 6 -4 8 -8 5 -4 -2 -9 5 -9 16 -2 19 1 18 30 -8 l32 -29 -25
30 c-60 71 -110 124 -110 118 0 -4 17 -24 37 -45 31 -32 35 -40 23 -50 -8 -7
-12 -9 -8 -5 7 9 -15 38 -70 95 -18 19 -24 31 -15 27 10 -4 25 -7 33 -7 8 0
51 -12 95 -28 174 -63 339 -100 439 -100 69 0 60 -7 145 132 229 379 296 747
195 1071 -13 43 -31 91 -40 105 -9 16 -13 19 -9 7 4 -11 7 -24 8 -30 1 -5 5
-12 9 -15 12 -10 14 -75 2 -73 -6 1 -11 -5 -11 -12 0 -10 4 -12 12 -5 9 8 15
5 20 -7 12 -27 13 -83 2 -90 -6 -3 -7 -1 -3 5 3 6 2 13 -4 17 -6 4 -10 -4 -10
-19 0 -13 -3 -33 -7 -43 -6 -16 -5 -17 13 -3 17 14 18 13 7 -1 -7 -9 -9 -20
-5 -24 4 -5 2 -5 -5 -2 -7 4 -15 -5 -22 -25 -14 -41 -14 -43 7 -27 14 11 13
10 -2 -9 -11 -12 -16 -22 -12 -22 4 0 0 -10 -8 -22 -19 -27 -21 -42 -3 -32 6
4 3 -2 -7 -14 -11 -12 -16 -22 -12 -22 4 0 2 -9 -4 -20 -6 -11 -16 -19 -22
-17 -6 1 -13 -4 -15 -11 -3 -8 1 -10 11 -6 9 3 2 -9 -15 -27 -19 -20 -29 -40
-26 -51 3 -10 2 -20 -2 -22 -13 -9 -10 36 5 58 8 13 11 26 7 31 -5 4 -2 5 6 0
9 -5 12 -4 8 2 -7 12 20 73 32 73 7 0 9 7 13 49 1 11 5 18 9 15 4 -2 6 4 5 13
-2 10 3 33 11 51 7 18 11 38 7 44 -4 6 -3 8 2 5 5 -3 9 9 9 26 -1 18 4 41 11
52 6 11 10 28 8 38 -1 10 2 14 8 11 7 -5 8 -2 4 5 -9 13 -21 6 -21 -12 -1 -7
-7 -11 -15 -9 -12 3 -12 1 -3 -9 12 -12 7 -42 -6 -34 -4 2 -8 -2 -8 -10 0 -8
4 -12 9 -9 4 3 8 -2 8 -11 0 -9 -4 -13 -10 -10 -6 4 -7 -1 -3 -11 5 -13 3 -15
-8 -9 -11 6 -12 5 -1 -6 16 -18 16 -34 -1 -20 -10 8 -14 7 -14 -4 0 -8 4 -12
9 -9 4 3 8 -2 8 -11 0 -9 -4 -13 -10 -10 -6 4 -7 -1 -3 -11 4 -11 2 -15 -4
-11 -7 5 -10 -6 -7 -29 3 -32 1 -34 -14 -23 -14 11 -15 11 -4 -1 21 -24 13
-34 -11 -14 -22 19 -22 19 -4 -2 21 -25 23 -41 3 -25 -12 10 -14 7 -9 -19 3
-25 1 -30 -9 -24 -7 4 -10 4 -6 -1 11 -12 -11 -47 -25 -39 -9 5 -8 3 1 -7 18
-20 15 -33 -5 -18 -14 10 -15 10 -7 0 7 -7 9 -22 6 -33 -4 -15 -7 -17 -13 -6
-6 9 -9 9 -9 1 0 -6 5 -15 10 -18 6 -3 10 -12 10 -18 0 -7 -4 -6 -11 3 -7 11
-9 7 -5 -17 3 -21 -1 -37 -13 -47 -15 -14 -17 -13 -18 12 -1 22 0 23 6 8 5
-13 10 -16 14 -9 4 7 3 14 -2 18 -6 3 -8 12 -4 20 3 8 0 15 -6 15 -6 0 -10 -6
-8 -12 1 -7 -2 -12 -8 -11 -5 1 -9 -16 -9 -37 2 -33 -1 -38 -17 -35 -12 2 -19
-2 -19 -11 0 -9 5 -12 12 -8 7 4 8 3 4 -5 -4 -6 -12 -9 -17 -5 -6 3 -8 -5 -5
-21 3 -15 2 -25 -1 -21 -18 18 -2 93 17 81 6 -4 7 1 3 11 -4 11 -8 13 -11 6
-2 -7 -7 -10 -11 -8 -4 3 -8 -5 -8 -16 -2 -22 -21 -40 -34 -32 -4 2 -5 -6 -1
-18 5 -21 6 -21 13 -2 6 16 8 16 8 2 1 -9 -4 -20 -9 -23 -8 -5 -7 -12 2 -23
11 -15 11 -15 -3 -4 -22 17 -45 -7 -26 -28 10 -12 9 -12 -3 -4 -21 14 -39 12
-50 -6 -5 -8 -10 -10 -10 -4 0 16 25 35 35 26 5 -4 5 -1 0 7 -6 10 -4 12 5 6
9 -6 11 -4 5 5 -6 9 -4 11 5 5 9 -6 11 -4 5 5 -6 9 -4 11 5 5 9 -6 11 -4 5 5
-5 9 -4 11 3 6 8 -5 10 -1 5 9 -5 13 -7 14 -14 3 -5 -7 -14 -13 -21 -13 -7 0
-14 -6 -14 -12 -3 -26 -5 -28 -15 -13 -10 13 -10 13 -6 -1 3 -9 -10 -35 -30
-60 -44 -56 -46 -57 -37 -34 7 17 6 18 -8 7 -9 -7 -15 -22 -13 -33 2 -11 0
-17 -5 -14 -4 3 -7 13 -6 23 2 9 -2 21 -8 25 -6 5 -3 6 9 3 18 -5 18 -5 4 6
-9 7 -17 18 -18 23 -5 20 -10 17 -6 -3 2 -12 0 -24 -6 -27 -8 -6 -13 8 -10 28
1 5 -3 6 -8 2 -6 -3 -7 -13 -4 -22 4 -11 3 -14 -5 -9 -7 4 -15 1 -18 -8 -3 -9
-10 -13 -16 -10 -5 4 -5 11 1 18 8 9 7 13 -4 13 -7 0 -13 -5 -12 -11 1 -6 -4
-10 -11 -8 -8 1 -11 -2 -8 -7 4 -5 2 -12 -4 -16 -5 -3 -10 2 -11 12 0 14 -3
12 -10 -6 -5 -14 -8 -30 -5 -37 6 -15 -20 -12 -36 4 -9 9 -17 8 -32 -6 -21
-17 -21 -17 -2 6 11 12 14 22 8 22 -6 0 -14 -5 -17 -11 -5 -7 -13 -5 -25 6
-12 11 -20 13 -25 5 -5 -8 -11 -8 -19 -1 -7 6 -17 7 -21 3 -5 -4 -5 -1 -1 6 4
6 3 12 -1 12 -5 0 -15 -6 -23 -12 -8 -7 -12 -9 -8 -4 4 5 3 17 -2 27 -7 12 -7
20 0 24 6 3 10 -4 11 -17 0 -13 3 -17 6 -10 3 7 2 20 -1 29 -6 14 -8 14 -26
-2 -24 -22 -38 -13 -19 12 12 17 12 17 -6 1 -15 -14 -16 -19 -5 -33 10 -13 15
-13 21 -3 5 8 8 5 6 -9 -1 -19 -3 -20 -17 -8 -8 7 -18 14 -22 14 -5 1 -10 2
-13 2 -3 1 -10 2 -17 3 -7 0 -15 12 -19 26 l-7 25 -1 -24 c-1 -29 -9 -24 -14
9 -6 36 -35 35 -32 -2 2 -16 0 -26 -3 -23 -8 7 -14 35 -13 60 0 15 -2 16 -8 6
-5 -7 -7 -23 -4 -35 3 -21 3 -21 -6 1 -6 12 -8 31 -6 43 2 11 0 18 -5 15 -5
-3 -11 -1 -15 5 -4 6 -11 7 -17 4 -7 -5 -9 -1 -5 9 3 9 2 19 -4 22 -5 4 -9 3
-8 -2 1 -4 1 -15 0 -23 -1 -13 -3 -13 -10 0 -6 8 -7 18 -4 24 4 5 1 6 -7 1
-10 -6 -12 -3 -7 11 7 18 6 18 -9 -1 -16 -19 -16 -19 -10 10 5 27 4 28 -5 8
-9 -17 -8 -26 5 -44 10 -15 16 -18 16 -9 0 9 6 6 16 -8 8 -12 20 -19 26 -16 7
5 9 1 5 -9 -3 -9 -2 -19 3 -22 6 -4 10 4 10 16 0 12 3 19 7 15 10 -10 11 -66
1 -72 -5 -3 -8 -2 -7 3 4 21 -2 24 -18 12 -16 -13 -17 -12 -5 3 8 10 9 19 3
22 -5 3 -12 0 -15 -6 -3 -7 -3 -2 1 12 5 22 4 23 -10 11 -9 -7 -15 -17 -12
-21 3 -5 1 -11 -4 -14 -5 -3 -7 7 -6 22 1 16 -4 37 -12 47 -12 17 -13 15 -9
-23 2 -24 1 -40 -3 -37 -3 4 -7 15 -7 26 -1 10 -2 26 -3 35 0 8 -6 12 -11 9
-6 -4 -7 -11 -4 -17 4 -7 2 -8 -5 -4 -6 4 -8 13 -4 19 4 7 7 23 6 37 l-2 25 8
-25 7 -25 6 27 c3 17 1 25 -5 21 -6 -4 -8 0 -4 10 3 9 1 19 -6 23 -7 4 -9 4
-5 0 3 -4 0 -22 -7 -41 -8 -18 -12 -35 -9 -37 2 -3 -4 -11 -13 -19 -16 -12
-17 -12 -7 1 7 8 11 33 9 55 -2 29 -1 34 5 20 8 -17 9 -17 7 6 -1 22 -6 26
-25 24 -16 -2 -22 2 -18 11 3 8 0 13 -6 11 -5 -1 -12 6 -13 16 -5 27 -9 28
-24 5 -9 -15 -9 -18 0 -13 7 5 10 4 6 -1 -3 -6 -2 -16 4 -24 7 -13 9 -13 10 0
0 8 7 2 14 -15 9 -19 14 -24 15 -12 0 9 5 17 10 17 7 0 7 -6 1 -18 -7 -13 -7
-22 0 -29 8 -8 7 -13 0 -18 -7 -4 -10 -1 -9 7 2 7 -3 12 -9 11 -7 -2 -12 0
-12 5 4 22 -2 42 -10 37 -6 -3 -8 -15 -6 -27 3 -11 1 -17 -3 -14 -4 4 -8 16
-8 27 -3 36 -4 40 -13 34 -6 -3 -8 -14 -6 -25 2 -12 0 -18 -5 -15 -9 6 -8 24
3 41 11 19 -5 25 -20 6 -13 -15 -13 -15 -4 5 6 12 11 24 11 26 0 7 -22 3 -37
-6 -7 -4 -10 -1 -9 10 2 10 -5 31 -14 48 -9 17 -16 37 -15 46 4 23 -33 21 -49
-3 -15 -21 -15 -21 -22 5 -3 15 -10 24 -15 21 -5 -3 -7 -9 -4 -14 3 -5 1 -11
-4 -14 -5 -4 -8 2 -6 11 4 29 -14 46 -34 31 -13 -10 -14 -10 -3 2 18 21 15 35
-5 19 -9 -8 -14 -9 -10 -3 7 13 -16 38 -26 28 -3 -3 -3 4 0 17 6 21 7 21 13 4
6 -18 7 -17 12 3 4 12 2 20 -2 17 -5 -3 -11 -1 -15 5 -4 6 -11 8 -16 4 -5 -3
-7 -10 -4 -15 4 -5 1 -17 -5 -26 -9 -15 -10 -14 -4 6 4 15 2 21 -4 17 -6 -3
-14 -2 -17 4 -5 7 -11 8 -19 1 -9 -7 -12 -3 -13 17 -2 59 -6 72 -21 60 -10 -9
-12 -6 -8 16 3 14 1 24 -3 21 -7 -4 -8 -18 -2 -65 2 -11 5 -9 11 5 7 17 9 17
9 3 1 -26 -2 -32 -17 -35 -8 -1 -12 1 -9 3 3 3 -1 25 -8 49 -8 24 -12 46 -9
49 2 3 1 4 -3 1 -3 -3 -14 2 -24 11 -16 14 -18 14 -28 -5 -8 -13 -8 -22 -1
-26 6 -4 10 -3 9 2 -3 20 2 34 11 28 11 -7 -13 -60 -32 -71 -10 -6 -11 -4 0 7
23 25 12 32 -15 8 -15 -13 -22 -17 -16 -9 15 19 4 38 -19 35 -10 -2 -16 0 -15
5 1 4 -2 8 -8 8 -5 0 -8 -5 -7 -11 2 -7 0 -8 -5 -4 -4 5 -8 14 -8 20 -1 7 -6
11 -13 10 -6 -2 -9 4 -6 15 5 16 5 16 -9 0 -12 -16 -14 -14 -14 17 0 19 4 32
9 29 5 -4 7 -13 4 -21 -3 -8 -2 -11 3 -8 6 3 14 -3 20 -12 8 -14 11 -15 11 -3
0 12 3 11 11 -3 6 -9 14 -15 19 -12 5 3 11 1 15 -4 3 -6 13 -8 23 -5 11 4 13
3 5 -3 -8 -6 -9 -14 -3 -23 10 -15 11 -13 14 18 1 9 5 24 10 32 5 8 6 12 1 8
-4 -4 -15 -2 -24 5 -14 11 -14 10 -2 -5 9 -12 10 -18 2 -18 -6 0 -16 10 -21
23 -6 16 -9 17 -9 5 -1 -9 -6 -20 -11 -23 -7 -4 -9 3 -6 20 4 24 3 25 -11 13
-15 -11 -16 -11 -10 7 7 19 6 19 -7 2 -11 -14 -15 -15 -19 -4 -3 8 0 21 6 28
10 11 9 11 -4 1 -10 -8 -19 -8 -27 -2 -7 6 -10 7 -7 4 2 -4 0 -16 -6 -27 -8
-15 -8 -18 1 -12 9 6 9 3 1 -12 -6 -11 -7 -24 -3 -29 4 -5 -1 -2 -10 5 -19 14
-25 26 -8 16 6 -3 10 -2 10 3 0 15 -28 22 -33 9 -2 -7 3 -21 12 -32 14 -17 14
-18 0 -8 -12 10 -18 10 -29 0 -12 -10 -12 -9 -2 4 10 13 9 19 -5 30 -15 12
-16 12 -10 -3 3 -10 1 -20 -5 -24 -6 -4 -8 -3 -5 3 4 6 -2 22 -13 34 -11 13
-19 19 -20 14 0 -6 5 -16 11 -22 8 -8 8 -13 0 -17 -6 -4 -12 -5 -12 -2 -1 3
-3 11 -4 16 -1 6 -3 14 -4 18 -2 17 -31 8 -31 -8 0 -10 -6 -23 -14 -30 -8 -6
-12 -19 -9 -27 4 -9 7 -28 9 -42 1 -14 2 -30 3 -34 1 -5 6 -5 13 -1 7 5 8 3 3
-6 -6 -10 -11 -9 -21 5 -7 10 -11 21 -9 26 3 4 1 10 -5 14 -5 3 -10 0 -10 -7
0 -7 -7 -2 -16 10 -8 12 -20 19 -26 16 -6 -4 -8 -2 -5 3 4 6 -4 18 -18 27 -14
9 -25 24 -24 34 0 14 2 14 9 -3 7 -16 9 -17 9 -3 1 21 -15 32 -24 17 -5 -7
-23 4 -49 30 -23 23 -46 38 -50 34 -4 -4 -4 1 0 11 5 13 4 17 -3 13 -7 -4 -10
5 -8 27 2 33 -13 43 -32 21 -4 -4 -2 -5 6 0 10 6 12 4 6 -5 -6 -9 -4 -11 5 -5
9 5 11 4 6 -3 -5 -9 -12 -8 -26 0 -11 7 -16 15 -11 18 14 9 8 40 -12 57 -11
10 -17 12 -13 6 4 -7 2 -13 -4 -13 -6 0 -8 -5 -4 -11 5 -8 9 -8 14 1 5 9 9 9
14 1 4 -6 1 -11 -6 -11 -11 0 -10 -2 0 -9 11 -6 10 -10 -4 -15 -10 -4 -15 -4
-11 0 8 8 -12 36 -22 30 -4 -3 -7 7 -8 22 -1 22 0 24 6 8 7 -19 8 -19 13 2 4
13 2 20 -6 19 -6 -1 -10 4 -8 11 3 17 -3 15 -19 -5 -12 -14 -12 -15 -1 -9 11
7 12 4 3 -13 -7 -11 -14 -21 -17 -21 -3 0 -2 4 1 10 3 5 -1 20 -9 32 -9 12
-16 27 -16 33 1 5 7 -1 14 -14 11 -20 14 -21 19 -7 5 12 3 15 -5 10 -8 -5 -9
-2 -5 9 4 10 2 16 -6 14 -7 -1 -11 3 -10 10 2 7 -4 10 -13 6 -13 -5 -13 -7 -2
-14 10 -7 11 -9 0 -9 -8 0 -10 -5 -6 -12 6 -10 4 -10 -8 0 -9 7 -14 21 -11 31
3 10 0 22 -7 26 -7 5 -8 11 -1 19 8 9 7 13 -3 13 -13 0 -14 -14 -4 -42 1 -5
-1 -11 -6 -13 -5 -1 -11 9 -12 24 -2 14 -6 29 -10 33 -4 3 -4 -4 -1 -16 3 -13
2 -25 -2 -27 -4 -3 -8 7 -9 21 -1 13 -6 32 -12 41 -8 14 -9 12 -6 -9 3 -18 0
-26 -10 -26 -9 0 -11 4 -5 10 5 5 7 16 4 23 -3 8 1 22 8 32 13 15 12 16 -3 3
-19 -14 -25 -2 -8 15 7 7 6 11 -3 11 -10 0 -14 -11 -12 -38 1 -21 -1 -36 -6
-33 -4 2 -5 12 -2 22 6 15 5 16 -13 2 -10 -8 -16 -11 -13 -7 4 5 3 23 -1 42
-5 20 -3 38 3 44 7 7 4 9 -11 6 -21 -4 -28 9 -23 38 1 5 -3 6 -9 2 -5 -3 -10
0 -10 7 0 9 -3 9 -10 -2 -9 -13 -10 -13 -10 0 0 9 6 22 13 29 10 10 9 12 -3 9
-8 -2 -14 2 -15 9 0 7 -7 18 -15 25 -12 11 -12 11 -1 -4 7 -10 10 -18 5 -18
-4 0 -3 -5 3 -11 8 -8 8 -20 2 -36 -6 -16 -6 -22 1 -18 6 3 14 -4 19 -17 9
-21 10 -21 11 -3 1 15 3 16 7 5 3 -8 12 -22 19 -30 7 -9 12 -26 11 -38 -2 -26
-1 -26 -18 -5 -10 11 -10 14 -1 9 7 -4 12 -1 12 9 0 9 -5 13 -10 10 -6 -4 -9
-3 -8 2 2 4 -1 8 -7 8 -5 0 -9 -4 -7 -10 2 -5 0 -6 -5 -2 -8 9 -9 13 -12 45
-1 14 -3 15 -10 2 -6 -8 -7 -18 -4 -24 3 -5 1 -6 -5 -2 -6 4 -8 14 -5 23 4 9
2 14 -3 10 -6 -3 -10 9 -11 26 -1 30 -1 30 7 7 5 -16 8 -19 9 -8 1 9 -4 29
-11 45 -6 15 -10 32 -9 36 1 5 -4 5 -10 1 -9 -5 -10 -2 -6 12 6 16 5 17 -6 4
-17 -21 -37 -23 -37 -4 0 8 4 13 9 9 5 -3 13 0 17 6 4 8 3 9 -4 5 -7 -4 -12 0
-13 11 -1 30 -29 -58 -41 -129 -16 -98 7 -155 149 -368 l17 -25 -25 23 c-25
21 -39 21 -39 -2 0 -6 4 -5 9 2 7 11 9 11 14 -1 4 -10 0 -14 -11 -12 -9 1 -22
-2 -29 -7 -7 -6 -14 -5 -18 2 -5 8 -11 7 -23 -2 -9 -7 -13 -8 -9 -2 5 8 -7 11
-39 10 -32 -1 -48 3 -54 14 -5 8 -10 10 -10 4 0 -13 -30 -14 -30 -1 0 5 -8 3
-17 -4 -14 -12 -16 -12 -9 0 7 11 1 13 -28 9 -20 -2 -36 0 -36 5 0 5 -8 3 -17
-4 -14 -12 -16 -12 -8 0 6 11 4 13 -8 8 -10 -4 -17 -1 -17 6 0 8 -4 6 -10 -3
-8 -12 -10 -12 -10 -1 0 10 -3 11 -14 2 -11 -10 -17 -8 -25 6 -8 13 -10 14
-11 3 0 -10 -3 -11 -11 -3 -7 7 -20 8 -34 3 -12 -4 -28 -4 -36 0 -8 6 -16 4
-21 -3 -6 -9 -8 -8 -8 2 0 11 -3 11 -17 0 -14 -12 -16 -12 -9 0 7 11 0 13 -33
9 -22 -2 -41 1 -41 6 0 5 -7 1 -16 -10 -8 -10 -13 -13 -9 -6 7 13 7 13 -83 16
-51 2 -62 -1 -57 -12 4 -12 3 -13 -10 -2 -8 7 -21 10 -29 7 -8 -3 -17 -1 -20
6 -3 8 -5 8 -5 1 -1 -6 -12 -9 -26 -6 -14 2 -33 -2 -42 -9 -12 -10 -14 -10 -9
-1 5 8 1 12 -11 12 -11 0 -25 -6 -32 -12 -11 -10 -13 -10 -7 0 8 13 -6 17 -18
5 -9 -10 -37 -13 -32 -4 3 4 -5 6 -17 5 -12 -1 -32 -3 -45 -3 -16 -1 -21 -5
-16 -13 6 -10 5 -10 -7 -1 -20 16 -31 17 -40 1 -6 -9 -9 -9 -9 -1 0 14 -36 9
-55 -7 -9 -8 -15 -8 -20 0 -3 5 -11 10 -16 10 -6 0 -7 -6 -3 -12 5 -9 2 -9 -9
1 -14 11 -17 11 -17 0 0 -11 -2 -11 -10 1 -9 14 -15 7 -10 -15 1 -5 -4 -4 -11
3 -15 13 -33 17 -25 4 3 -5 -1 -9 -9 -9 -8 0 -12 3 -10 7 10 16 -45 3 -67 -15
-15 -14 -18 -15 -10 -3 12 15 10 16 -17 14 -17 -1 -34 -6 -38 -11 -4 -4 -2 -5
6 0 10 6 12 4 7 -4 -5 -7 -13 -8 -19 -4 -15 11 -38 10 -57 -2 -20 -12 -41 -15
-35 -5 7 11 -46 2 -61 -11 -8 -7 -14 -6 -19 1 -4 7 -11 7 -18 2 -7 -5 -29 -8
-49 -7 -21 1 -38 -3 -38 -8 0 -6 -3 -7 -6 -4 -10 10 17 38 29 30 6 -3 7 -1 3
6 -4 6 -11 9 -16 6 -5 -3 -12 -1 -15 5 -5 8 -12 7 -23 -2 -13 -11 -15 -11 -10
3 4 9 1 16 -7 16 -7 0 -11 -6 -9 -12 3 -6 -2 -12 -11 -12 -9 0 -14 6 -11 13 3
8 1 16 -5 19 -5 4 -6 12 -2 18 3 7 -4 3 -16 -8 -13 -11 -30 -20 -39 -20 -9 0
-17 -5 -17 -12 0 -6 -3 -15 -7 -19 -4 -3 -5 3 -3 15 3 14 0 21 -8 18 -7 -2
-11 -14 -9 -27 2 -14 0 -20 -7 -15 -6 3 -9 10 -6 15 3 5 1 11 -5 15 -9 6 -15
-8 -11 -29 1 -5 -4 -4 -12 2 -19 16 -30 3 -15 -17 8 -10 4 -9 -9 3 -25 21 -22
37 6 31 12 -2 23 6 32 21 9 18 15 21 21 12 5 -8 8 -9 8 -2 0 7 13 10 30 9 31
-3 48 9 31 19 -5 4 -13 2 -16 -4 -5 -8 -11 -7 -21 1 -7 6 -12 15 -9 19 3 5 1
11 -4 14 -4 3 -8 -2 -7 -12 0 -9 -3 -17 -9 -17 -5 0 -9 4 -7 10 2 5 -6 1 -18
-10 -11 -10 -18 -25 -15 -33 3 -9 0 -12 -9 -9 -8 3 -22 -3 -31 -13 -15 -17
-16 -22 -4 -37 13 -16 12 -17 -3 -4 -15 11 -18 11 -18 0 0 -11 -2 -11 -10 1
-9 14 -15 6 -10 -15 1 -5 -2 -7 -6 -3 -4 4 -28 -8 -53 -28 -25 -20 -5 2 45 49
83 79 165 183 194 248 11 24 7 37 -41 125 -67 127 -128 224 -140 224 -6 0 -8
4 -5 9 3 5 -1 14 -8 20 -11 10 -14 9 -12 -3z"/>
<path d="M4465 7271 c-51 -13 -89 -38 -132 -84 -53 -57 -83 -116 -90 -176 -6
-53 9 -75 49 -69 19 2 24 11 29 49 9 63 29 97 86 151 47 43 54 46 121 53 45 4
90 3 120 -5 64 -15 143 -76 159 -120 17 -50 16 -133 -4 -182 -15 -40 -106
-173 -163 -240 l-26 -30 -124 -2 c-142 -2 -186 -15 -259 -81 -63 -57 -80 -146
-36 -190 20 -21 34 -25 81 -25 47 0 69 7 135 41 42 23 108 66 145 95 36 30 71
54 77 54 20 0 102 -97 127 -149 20 -44 28 -52 48 -49 14 2 30 11 36 20 16 26
-29 111 -96 181 l-56 60 79 107 c97 132 117 177 125 272 7 81 -11 166 -44 203
-25 29 -91 79 -132 100 -39 20 -202 30 -255 16z m55 -738 c-1 -24 -202 -143
-241 -143 -25 0 -34 22 -20 49 15 28 73 71 118 87 41 14 143 19 143 7z"/>
<path d="M4050 7245 c-10 -13 -12 -97 -6 -413 5 -218 11 -426 14 -462 7 -64 7
-65 39 -68 27 -3 33 1 38 20 3 13 1 156 -5 318 -5 162 -10 363 -10 446 0 154
-5 174 -41 174 -9 0 -22 -7 -29 -15z"/>
<path d="M5612 6907 c-12 -14 -3 -459 10 -472 4 -4 12 -4 19 0 9 6 10 64 4
239 -3 127 -10 235 -14 239 -4 4 -13 2 -19 -6z"/>
<path d="M2856 6863 c-7 -7 -6 -355 2 -435 3 -34 8 -48 19 -48 13 0 15 30 12
233 -2 127 -5 238 -7 245 -5 13 -15 16 -26 5z"/>
<path d="M2575 6850 c-3 -5 -3 -113 1 -240 7 -221 8 -230 27 -230 19 0 20 5
14 113 -4 61 -7 169 -7 240 0 104 -3 127 -14 127 -8 0 -17 -4 -21 -10z"/>
<path d="M6555 6039 c-61 -17 -129 -120 -105 -159 11 -18 27 -5 33 29 9 45 56
91 99 98 48 7 80 -1 116 -32 57 -48 49 -115 -25 -216 -39 -53 -41 -54 -85 -51
-64 5 -122 -13 -152 -49 -48 -57 -26 -114 38 -99 42 9 114 50 140 78 16 19 20
20 40 7 12 -8 32 -33 45 -55 24 -42 38 -50 47 -25 7 17 -15 55 -53 96 l-25 27
35 48 c19 27 42 63 51 81 20 40 21 131 1 160 -37 53 -129 82 -200 62z"/>
<path d="M1718 5705 c-62 -42 -91 -104 -96 -204 -5 -104 9 -159 51 -208 74
-84 187 -85 251 -1 63 84 61 256 -4 348 -24 34 -114 90 -145 90 -11 0 -37 -11
-57 -25z m122 -41 c65 -43 84 -83 88 -191 4 -85 2 -96 -21 -136 -31 -52 -70
-72 -128 -64 -80 11 -119 76 -119 199 0 96 20 149 69 191 41 34 61 34 111 1z"/>
<path d="M1555 5699 c-11 -16 6 -469 17 -475 24 -15 27 24 21 249 -5 183 -9
237 -19 237 -7 0 -16 -5 -19 -11z"/>
<path d="M8123 5383 c8 -13 -17 -36 -28 -25 -5 4 -5 1 -1 -6 4 -7 2 -19 -4
-27 -7 -8 -9 -15 -6 -15 4 0 2 -10 -5 -21 -8 -15 -8 -19 0 -15 6 4 11 2 11 -3
0 -6 -6 -11 -12 -12 -7 0 -4 -4 7 -9 l20 -9 -20 -1 -20 -1 20 -9 20 -9 -20 0
c-15 -1 -17 -3 -7 -10 11 -6 10 -10 -5 -15 -17 -7 -17 -8 1 -22 14 -10 16 -14
5 -14 -12 0 -12 -2 1 -10 13 -9 13 -10 0 -10 -13 0 -13 -1 0 -10 13 -9 13 -10
0 -10 -13 0 -13 -1 0 -10 13 -8 13 -10 1 -10 -11 0 -10 -4 4 -14 18 -13 18
-13 -1 -24 -10 -6 -14 -12 -7 -12 6 0 10 -8 8 -17 -1 -10 0 -22 4 -28 9 -15
10 -36 2 -31 -6 4 -7 -34 -1 -41 2 -2 3 -12 4 -22 0 -11 4 -22 7 -25 3 -4 3
-24 -1 -46 -4 -22 -5 -42 -1 -45 21 -21 10 -656 -14 -815 -2 -14 -6 -50 -10
-81 -3 -31 -7 -65 -9 -75 -2 -11 -7 -39 -10 -64 -7 -49 -9 -61 -25 -130 -5
-25 -12 -56 -15 -70 -5 -24 -9 -42 -21 -90 -11 -46 -14 -56 -24 -87 -5 -18 -8
-33 -5 -33 2 0 -4 -12 -13 -27 -10 -15 -13 -24 -6 -20 7 5 6 -4 -4 -23 -8 -17
-16 -36 -17 -43 -2 -7 -6 -20 -10 -29 -4 -9 -9 -22 -10 -30 -2 -7 -9 -29 -17
-48 -7 -19 -12 -38 -11 -42 1 -5 -3 -8 -10 -8 -6 0 -9 -3 -6 -6 7 -6 -75 -199
-95 -222 -10 -13 -9 -14 2 -7 8 5 3 -7 -11 -26 -37 -50 -44 -64 -27 -54 10 6
9 2 -2 -11 -9 -10 -30 -45 -46 -76 -17 -32 -34 -54 -38 -50 -5 4 -5 1 -1 -6 5
-8 -1 -23 -14 -37 -13 -14 -19 -29 -15 -36 5 -8 4 -10 -3 -5 -7 4 -12 1 -12
-8 0 -9 -5 -16 -11 -16 -5 0 -7 -4 -4 -10 3 -5 1 -10 -5 -10 -6 0 -9 -4 -6 -9
4 -5 3 -11 -1 -13 -5 -2 -19 -16 -33 -33 -14 -16 -18 -25 -10 -20 9 6 8 3 -2
-7 -10 -9 -18 -21 -18 -28 0 -6 -6 -8 -12 -4 -7 4 -10 3 -5 -1 4 -5 -3 -20
-15 -34 -13 -14 -16 -21 -8 -16 9 6 6 1 -7 -10 -13 -12 -23 -26 -23 -32 0 -7
-10 -19 -22 -27 -12 -9 -18 -16 -13 -16 6 0 2 -5 -7 -11 -10 -5 -18 -16 -18
-24 0 -8 -10 -21 -22 -29 -12 -9 -19 -16 -15 -16 4 0 2 -6 -5 -14 -7 -8 -16
-12 -21 -9 -4 2 -6 0 -5 -6 2 -5 -6 -17 -17 -25 l-20 -16 20 6 c14 4 12 0 -8
-13 -15 -11 -24 -23 -20 -26 3 -4 -2 -7 -12 -7 -10 0 -16 -3 -13 -6 4 -3 -7
-18 -23 -33 -16 -15 -26 -31 -22 -34 3 -4 -1 -7 -10 -7 -15 0 -22 -11 -18 -32
0 -5 -5 -7 -12 -5 -6 1 -11 -4 -10 -10 2 -7 -3 -12 -10 -10 -6 1 -11 -4 -10
-10 2 -7 -3 -12 -10 -10 -6 1 -11 -4 -10 -10 2 -7 -3 -12 -10 -10 -6 1 -11 -4
-10 -10 2 -7 -3 -12 -10 -10 -6 1 -11 -4 -10 -10 2 -7 -3 -12 -10 -10 -6 1
-11 -5 -9 -13 2 -8 0 -11 -4 -7 -4 4 -14 -3 -22 -15 -8 -14 -11 -16 -8 -5 3
11 2 15 -4 12 -6 -3 -10 -12 -10 -19 0 -7 -10 -21 -22 -32 l-23 -19 19 25 c11
14 -1 4 -26 -22 -26 -25 -50 -43 -54 -40 -4 4 -4 -1 -1 -11 4 -10 3 -16 -2
-13 -5 3 -21 -6 -37 -20 -16 -15 -23 -23 -15 -19 9 5 12 4 7 -3 -4 -6 -14 -8
-23 -5 -11 4 -14 3 -9 -5 4 -7 2 -12 -5 -12 -7 0 -24 -13 -38 -28 -14 -15 -21
-21 -16 -12 6 9 -2 3 -16 -12 -14 -15 -30 -28 -36 -28 -6 0 -28 -17 -49 -37
-21 -21 -34 -31 -28 -23 5 9 -2 4 -15 -10 -13 -14 -20 -18 -16 -10 4 8 -3 4
-16 -10 -13 -14 -20 -19 -14 -10 10 15 -24 -9 -55 -40 -13 -14 -14 -14 -5 0
10 16 -29 -14 -53 -40 -12 -13 -13 -13 -7 0 4 8 -1 6 -9 -4 -9 -11 -16 -16
-16 -11 0 5 -7 0 -16 -11 -8 -10 -13 -12 -9 -4 4 8 -3 4 -15 -10 -12 -14 -18
-18 -14 -10 7 13 5 13 -9 1 -9 -7 -14 -18 -10 -25 4 -6 0 -5 -9 2 -17 13 -35
1 -24 -16 3 -5 -1 -9 -9 -9 -8 0 -11 5 -8 11 4 6 -1 5 -10 -3 -9 -7 -14 -18
-10 -25 4 -6 0 -5 -9 2 -17 13 -35 1 -24 -16 3 -5 -1 -9 -9 -9 -8 0 -11 5 -8
11 3 6 -7 -1 -23 -15 -16 -15 -35 -24 -42 -22 -7 3 -20 -4 -30 -14 -9 -10 -13
-13 -8 -6 6 10 5 12 -7 7 -8 -3 -18 -12 -21 -20 -3 -8 -12 -11 -22 -7 -13 5
-15 3 -9 -8 7 -12 6 -12 -7 -1 -14 11 -19 10 -31 -8 -11 -16 -16 -18 -20 -8
-3 8 -6 5 -6 -7 -1 -17 -3 -17 -11 -5 -8 12 -10 12 -10 -5 0 -17 -2 -17 -10
-5 -9 13 -10 13 -11 0 -1 -8 -1 -19 0 -23 1 -5 -3 -6 -9 -2 -6 3 -8 12 -4 18
3 7 -2 3 -10 -7 -12 -15 -16 -16 -16 -5 0 12 -2 12 -9 -1 -6 -8 -7 -18 -4 -24
3 -5 1 -6 -6 -2 -6 4 -9 13 -5 19 3 7 -1 4 -9 -6 -11 -14 -16 -15 -20 -5 -4
11 -6 11 -6 0 -1 -7 -5 -11 -10 -7 -5 3 -13 0 -17 -6 -5 -8 -3 -9 6 -4 9 5 11
4 6 -4 -6 -9 -11 -9 -21 -1 -10 8 -15 8 -21 -1 -5 -8 -3 -9 6 -4 8 5 11 4 6
-3 -4 -6 -14 -8 -23 -5 -10 4 -14 2 -10 -4 3 -5 0 -10 -8 -10 -8 0 -11 5 -8
11 3 6 -5 1 -19 -12 -16 -14 -28 -19 -32 -13 -8 12 -36 3 -36 -11 0 -6 8 -5
18 3 14 11 15 11 5 -1 -15 -16 -54 -21 -47 -6 3 6 -2 2 -10 -8 -11 -14 -16
-15 -16 -6 0 9 -5 8 -16 -6 -8 -10 -12 -12 -8 -4 7 13 5 13 -9 1 -9 -7 -17
-10 -17 -5 0 4 -7 -1 -16 -12 -8 -10 -13 -13 -9 -7 3 7 1 13 -4 13 -6 0 -11
-4 -11 -10 0 -5 -7 -6 -17 -3 -12 5 -14 3 -8 -7 5 -8 4 -11 -3 -6 -6 3 -13 2
-16 -3 -3 -5 -16 -7 -28 -3 -12 3 -19 1 -15 -4 3 -6 -4 -11 -16 -11 -41 -2
-158 -38 -150 -46 4 -5 0 -5 -9 -2 -9 4 -41 0 -70 -8 -68 -19 -179 -40 -184
-34 -2 2 22 9 53 16 517 109 1025 346 1443 675 115 91 296 260 405 379 114
124 105 115 140 162 17 22 32 42 35 45 26 22 60 81 54 91 -4 7 -3 9 3 6 11 -7
105 127 187 267 34 58 44 82 36 90 -7 6 -11 7 -10 1 5 -21 0 -36 -10 -30 -6 4
-7 -1 -3 -11 4 -12 3 -15 -5 -10 -8 5 -10 1 -5 -10 5 -13 3 -15 -7 -9 -8 5
-11 4 -7 -2 4 -5 -3 -20 -14 -31 -10 -12 -19 -24 -18 -27 2 -15 -8 -26 -27
-27 -16 -2 -20 -8 -19 -30 1 -16 -2 -31 -7 -34 -7 -5 -12 17 -9 38 0 4 -6 5
-15 1 -9 -3 -12 -9 -7 -12 16 -10 25 -43 11 -38 -7 2 -12 10 -10 16 1 6 -2 11
-7 11 -5 0 -8 -18 -7 -40 2 -21 -1 -37 -6 -34 -4 3 -8 -2 -8 -11 0 -8 -7 -18
-15 -21 -8 -4 -13 -10 -10 -15 7 -10 -30 -31 -39 -22 -3 3 -6 1 -6 -4 0 -6 4
-13 10 -15 5 -1 0 -14 -13 -28 -12 -14 -19 -21 -14 -16 12 17 8 29 -6 17 -10
-8 -14 -7 -14 2 0 6 -2 17 -4 22 -2 6 1 11 6 12 6 1 9 -4 7 -11 -1 -7 5 -13
13 -13 20 0 19 12 -1 32 -16 15 -16 16 1 13 12 -2 24 6 32 22 7 15 13 19 13
10 1 -9 5 -6 10 8 5 12 13 22 18 22 18 0 7 45 -15 62 -59 49 -126 -21 -75 -79
9 -11 23 -18 30 -16 7 3 10 -1 6 -11 -3 -9 -10 -13 -15 -10 -6 3 -16 0 -24 -6
-9 -7 -22 -9 -32 -5 -25 11 -56 6 -69 -11 -6 -7 -14 -11 -17 -8 -3 3 -1 -11 3
-32 5 -20 14 -41 21 -45 8 -4 10 -11 7 -15 -4 -4 -3 -15 3 -25 6 -12 6 -18 0
-17 -5 2 -9 -1 -9 -7 0 -5 4 -9 9 -8 5 2 9 -2 9 -7 0 -6 -4 -10 -9 -10 -11 0
-32 25 -26 32 12 12 -45 30 -72 23 -15 -5 -31 -8 -35 -7 -4 1 -4 -6 -1 -15 4
-9 2 -14 -3 -11 -5 4 -9 -4 -9 -17 0 -13 3 -21 8 -18 4 2 7 -3 7 -11 0 -8 10
-22 22 -30 12 -9 18 -16 12 -16 -5 0 -15 5 -22 12 -15 15 -15 3 -1 -24 7 -12
7 -18 1 -14 -6 3 -13 0 -15 -6 -4 -10 -6 -10 -6 -1 -1 19 -55 43 -71 33 -8 -5
-18 -6 -22 -4 -4 3 -8 -2 -8 -10 0 -9 -4 -16 -8 -16 -12 0 -13 -48 -1 -55 6
-4 1 -14 -12 -26 -12 -10 -26 -16 -32 -12 -6 3 -1 10 11 14 26 10 28 24 6 33
-14 5 -15 4 -4 -9 10 -13 9 -15 -9 -15 -11 0 -21 -5 -21 -11 0 -6 -7 -9 -15
-5 -8 3 -15 1 -15 -4 0 -6 -7 -10 -17 -10 -9 0 -14 -3 -10 -6 3 -4 0 -13 -8
-21 -13 -12 -13 -17 1 -39 10 -15 12 -24 5 -24 -6 0 -11 6 -11 14 0 14 -29 30
-38 21 -3 -3 0 -5 6 -5 9 0 9 -6 0 -25 -10 -23 -28 -26 -28 -4 0 6 5 7 10 4 6
-3 10 -1 10 4 0 18 -13 12 -39 -15 -13 -14 -29 -23 -36 -20 -8 3 -10 -4 -7
-20 2 -13 0 -24 -7 -24 -5 0 -8 8 -5 18 5 14 4 15 -5 2 -9 -12 -11 -13 -11 -1
0 8 -3 11 -6 8 -4 -4 -2 -12 3 -19 5 -7 13 -22 17 -33 5 -14 -1 -11 -19 10
-15 17 -24 25 -21 18 4 -6 2 -14 -4 -18 -15 -9 -12 -25 4 -25 8 0 16 -7 20
-15 5 -13 3 -13 -18 0 -12 8 -26 12 -30 8 -4 -5 -12 -8 -16 -8 -5 0 -16 -9
-25 -20 -16 -20 -16 -19 -10 5 5 19 4 22 -4 10 -15 -21 -14 -53 1 -44 7 5 8 3
3 -6 -7 -11 -10 -10 -19 1 -6 8 -17 15 -25 17 -12 3 -12 1 -1 -13 11 -13 11
-18 0 -28 -8 -8 -11 -8 -7 -1 4 7 1 17 -6 22 -10 9 -13 5 -11 -18 l2 -29 -27
17 c-20 13 -23 13 -15 2 9 -12 8 -18 -4 -30 -14 -13 -15 -12 -9 3 3 9 1 19 -5
23 -6 4 -8 3 -4 -4 3 -6 -3 -13 -14 -17 -11 -3 -20 -11 -20 -17 0 -7 4 -7 13
1 10 8 14 7 14 -3 0 -7 -10 -13 -21 -12 -12 1 -21 -4 -21 -11 0 -6 -3 -14 -7
-18 -9 -9 -4 17 7 35 5 8 -2 6 -14 -5 -13 -11 -25 -19 -27 -17 -6 3 -3 -12 3
-18 4 -3 3 2 -2 10 -5 8 -4 12 0 7 5 -4 10 -14 11 -22 2 -11 -2 -12 -17 -2
-10 6 -19 16 -19 21 0 6 -6 1 -14 -10 -8 -10 -20 -19 -27 -19 -7 0 -14 -6 -16
-12 -3 -7 0 -13 7 -13 6 0 8 5 4 12 -5 9 -2 9 9 -1 21 -17 21 -16 -4 -18 -12
-1 -28 -10 -36 -20 -13 -17 -13 -16 -4 4 8 15 8 24 1 28 -6 4 -9 1 -8 -7 2 -7
-5 -12 -14 -12 -10 1 -15 -2 -12 -7 3 -5 -2 -12 -10 -15 -9 -3 -13 -11 -9 -18
4 -6 -1 -5 -10 3 -14 11 -17 11 -21 0 -13 -40 -14 -42 -15 -19 -1 19 -3 22
-10 10 -6 -8 -7 -18 -4 -24 3 -5 1 -6 -5 -2 -7 4 -12 1 -12 -6 0 -9 -3 -9 -10
2 -8 13 -10 13 -10 -2 0 -9 -5 -20 -12 -24 -6 -4 -8 -3 -5 3 4 6 -2 13 -13 16
-11 3 -18 2 -15 -3 6 -10 -24 -24 -45 -21 -12 1 -12 0 -1 -7 9 -7 10 -12 2
-16 -6 -4 -11 -4 -12 1 0 4 -4 -1 -9 -12 -6 -15 -9 -16 -9 -4 -1 9 -8 16 -16
16 -9 0 -11 -4 -6 -11 6 -7 3 -17 -7 -26 -14 -13 -15 -12 -8 5 4 11 4 16 0 12
-4 -4 -14 -1 -23 5 -9 7 -13 8 -9 4 4 -5 0 -15 -9 -21 -13 -10 -15 -16 -6 -27
10 -11 8 -14 -10 -15 -15 -2 -18 0 -8 6 9 6 10 11 2 15 -6 4 -13 1 -15 -6 -13
-40 -14 -42 -15 -21 -1 12 -6 25 -11 28 -6 4 -9 3 -8 -2 2 -4 -2 -10 -7 -11
-6 -2 -16 -8 -22 -14 -7 -6 -13 -7 -13 -4 0 4 -9 2 -20 -4 -11 -6 -19 -17 -18
-25 2 -7 -1 -14 -7 -14 -5 -1 -10 3 -10 8 0 5 -4 13 -9 18 -5 5 -6 3 -2 -4 5
-9 1 -13 -11 -13 -17 -1 -17 -2 1 -15 11 -8 14 -15 8 -15 -7 0 -15 0 -19 0 -5
0 -8 4 -8 9 0 5 -3 13 -7 17 -7 7 -12 -10 -9 -29 1 -5 -3 -6 -8 -2 -6 3 -9 11
-7 18 1 7 1 9 -1 5 -3 -5 -12 -8 -20 -8 -11 0 -14 -6 -10 -22 6 -22 6 -22 -14
2 -10 14 -17 18 -14 10 4 -10 -2 -16 -20 -17 -52 -4 -56 -6 -50 -22 5 -13 4
-14 -6 -4 -7 7 -16 13 -21 13 -4 0 -6 -6 -4 -13 1 -6 1 -9 -1 -4 -3 4 -10 4
-15 1 -7 -4 -8 -2 -4 4 4 7 2 12 -3 12 -6 0 -11 -4 -11 -10 0 -5 -7 -6 -17 -3
-11 4 -14 3 -9 -6 9 -14 -16 -11 -26 4 -4 6 -8 1 -8 -10 0 -17 -2 -17 -10 -5
-8 12 -10 12 -10 1 0 -11 -3 -11 -16 -1 -8 8 -14 9 -13 4 4 -23 -2 -26 -15 -8
-14 18 -14 18 -13 0 1 -11 -5 -20 -16 -21 -9 -2 -15 1 -12 5 3 5 -6 3 -21 -5
-15 -7 -34 -11 -43 -7 -14 5 -14 4 -1 -14 14 -17 13 -18 -1 -7 -12 10 -18 10
-29 0 -10 -9 -11 -9 -6 0 4 7 2 13 -3 13 -6 0 -11 -6 -11 -12 0 -9 -4 -8 -10
2 -8 13 -10 12 -10 -4 0 -20 0 -20 -16 0 -8 10 -13 14 -10 8 8 -16 -16 -34
-39 -30 -11 2 -24 -2 -28 -8 -6 -7 -7 -5 -4 6 9 25 -20 29 -37 5 -9 -13 -13
-15 -10 -5 4 12 1 16 -13 13 -10 -2 -22 -4 -26 -4 -5 -1 -5 -7 -1 -13 6 -10 4
-10 -8 0 -13 10 -18 10 -24 1 -5 -8 -3 -10 7 -4 8 5 11 4 6 -1 -4 -4 -19 -9
-33 -10 -24 -1 -23 1 16 41 25 26 47 60 56 91 20 64 19 170 -2 204 -59 92
-131 130 -264 137 -150 9 -226 -19 -341 -126 l-59 -54 0 69 c0 111 35 188 122
269 96 89 140 107 243 102 46 -2 100 -12 128 -23 47 -18 49 -18 62 -1 20 28
10 42 -48 69 -43 19 -69 23 -152 23 -92 0 -105 -2 -165 -32 -99 -48 -172 -120
-217 -210 -36 -74 -38 -82 -41 -195 -4 -119 11 -194 53 -278 15 -30 61 -79 94
-100 21 -14 22 -17 7 -30 -15 -11 -17 -11 -14 1 2 8 -3 13 -10 11 -8 -1 -11 2
-6 10 6 10 4 11 -7 0 -17 -16 -32 -16 -23 0 4 7 -1 5 -12 -4 -19 -17 -21 -17
-38 0 -11 9 -16 12 -12 5 3 -6 2 -14 -4 -18 -5 -3 -10 -1 -10 5 0 6 -8 10 -17
8 -10 -1 -24 2 -32 6 -11 7 -13 5 -7 -9 5 -14 4 -16 -7 -7 -10 9 -17 8 -27 -1
-10 -9 -11 -9 -6 1 4 6 4 12 -1 13 -4 0 -16 2 -26 4 -9 2 -15 -1 -11 -6 3 -5
10 -6 16 -3 7 4 8 2 4 -5 -6 -9 -14 -8 -32 4 -13 8 -24 11 -24 5 0 -5 -8 -10
-17 -10 -15 0 -16 -2 -3 -10 8 -5 12 -11 9 -15 -3 -3 -18 6 -32 19 -15 14 -27
20 -27 13 0 -9 -2 -9 -8 -1 -4 6 -20 11 -37 10 -16 -1 -35 2 -41 7 -7 4 -18 1
-27 -8 -9 -8 -17 -11 -19 -6 -2 5 -12 11 -23 13 -11 1 -23 8 -27 13 -5 6 -8 5
-8 -4 0 -11 -3 -11 -15 -1 -13 11 -14 10 -9 -3 3 -9 -1 -24 -10 -32 -15 -15
-16 -15 -16 5 0 14 4 19 13 14 8 -5 8 -2 -2 9 -14 18 -26 23 -16 8 3 -5 1 -12
-4 -16 -6 -3 -7 -13 -4 -23 3 -9 -6 -2 -20 17 -15 19 -25 37 -23 40 6 8 -44 7
-71 -3 -13 -4 -23 -13 -23 -20 0 -20 -37 -49 -45 -36 -4 6 -14 9 -24 5 -12 -5
-13 -4 -4 6 9 9 15 9 26 0 11 -9 17 -8 28 5 11 13 11 15 -2 14 -25 -4 -39 0
-39 11 0 5 4 8 9 5 4 -3 1 10 -8 28 -9 19 -18 32 -20 30 -1 -1 -13 1 -25 5
-14 6 -25 4 -33 -4 -7 -7 -17 -15 -23 -17 -6 -2 -12 -18 -12 -36 -1 -28 -2
-30 -14 -14 -11 14 -13 14 -14 2 0 -12 -2 -12 -9 -2 -4 7 -13 12 -18 10 -6 -2
-11 2 -11 7 0 6 4 9 9 8 4 -2 5 5 2 14 -4 11 -3 14 5 9 14 -8 -2 40 -20 61
-27 33 -96 -2 -90 -45 4 -26 -4 -25 -72 3 -27 12 -28 13 -9 19 26 8 34 37 19
68 -25 50 -96 24 -96 -36 0 -20 -3 -27 -9 -18 -4 7 -14 15 -22 17 -63 15 -70
22 -40 49 35 32 5 89 -42 80 -27 -5 -49 -34 -44 -56 3 -10 -2 -23 -10 -29 -8
-7 -13 -8 -12 -3 1 5 1 16 0 24 -1 12 -5 11 -18 -5 -9 -11 -14 -14 -11 -5 3 8
0 20 -7 27 -18 16 -28 3 -12 -16 10 -14 10 -14 -4 -3 -19 14 -15 45 7 63 17
14 18 51 2 67 -19 19 -66 15 -78 -7 -17 -32 -12 -69 10 -81 11 -6 25 -8 30 -5
6 3 10 4 10 1 0 -3 -10 -10 -21 -17 -12 -6 -19 -7 -15 -1 9 15 -20 22 -33 9
-7 -7 -12 -7 -11 -2 5 22 -1 27 -17 14 -16 -13 -17 -12 -4 3 15 20 2 24 -18 5
-10 -10 -12 -9 -9 3 2 8 -3 14 -11 15 -8 0 -16 7 -18 15 -4 13 -3 13 7 0 10
-13 11 -12 6 3 -4 12 -2 17 6 14 7 -2 12 -9 11 -14 -1 -5 5 -10 13 -10 7 0 14
7 14 14 0 8 -4 11 -10 8 -5 -3 -10 -2 -10 3 0 5 -9 12 -20 15 -10 3 -19 2 -18
-2 2 -18 -4 -22 -17 -11 -13 11 -10 15 22 30 29 13 39 23 41 43 2 31 -29 57
-60 49 -27 -7 -51 -62 -35 -81 15 -17 18 -41 6 -41 -6 0 -7 -6 -3 -12 5 -9 2
-9 -9 1 -9 7 -17 19 -17 25 0 6 5 4 10 -4 5 -8 10 -10 10 -4 0 6 -8 18 -17 25
-11 10 -14 10 -9 2 4 -8 2 -13 -4 -13 -6 0 -8 -5 -4 -13 5 -8 2 -7 -9 2 -13
10 -14 17 -7 26 8 10 8 15 -1 21 -7 4 -10 3 -7 -2 3 -5 -1 -16 -10 -23 -14
-13 -15 -12 -10 7 4 12 1 25 -4 29 -6 3 -8 2 -5 -3 3 -6 2 -16 -4 -24 -7 -12
-9 -11 -10 5 -1 11 -1 24 1 30 1 5 -9 1 -21 -10 -12 -11 -19 -14 -14 -6 6 11
4 13 -10 7 -16 -6 -16 -4 -4 10 13 16 12 16 -8 6 -19 -11 -24 -8 -43 18 -12
17 -25 28 -30 25 -5 -3 -11 -1 -15 4 -3 5 -14 8 -25 6 -11 -2 -23 1 -26 7 -5
7 -2 8 6 3 9 -5 11 -4 6 3 -4 7 -12 12 -18 12 -6 0 -21 8 -32 17 -16 14 -18
14 -11 3 9 -14 8 -14 -5 0 -8 8 -31 24 -50 33 -19 10 -59 36 -89 57 -29 22
-59 37 -65 33 -6 -3 -8 -3 -4 2 7 7 -13 27 -37 36 -5 2 -19 14 -32 27 -13 13
-28 20 -36 16 -6 -4 -9 -4 -5 1 10 10 -49 58 -62 50 -6 -4 -9 -3 -8 2 2 4 -7
18 -19 31 -13 12 -23 19 -23 16 0 -3 -7 2 -16 10 -8 9 -20 14 -25 11 -5 -4 -6
2 -2 12 3 10 3 15 -2 11 -4 -4 -15 1 -24 10 -10 12 -13 13 -7 2 5 -8 -4 0 -22
18 -17 17 -36 32 -42 32 -6 0 -8 5 -4 12 4 7 3 8 -5 4 -6 -4 -14 0 -17 9 -5
13 -9 14 -15 3 -5 -8 0 -21 13 -35 12 -13 18 -23 13 -23 -5 0 1 -9 13 -21 12
-11 19 -25 16 -31 -4 -7 -2 -8 4 -4 6 4 9 14 6 24 -5 14 -4 14 4 3 6 -8 9 -23
7 -34 -4 -16 -2 -17 12 -5 15 12 15 11 3 -12 -12 -23 -12 -24 4 -11 14 12 16
12 11 0 -3 -8 2 -23 11 -34 8 -11 12 -13 9 -5 -4 8 4 2 19 -15 14 -16 25 -35
26 -41 0 -7 7 -14 15 -18 8 -3 15 -13 15 -21 0 -10 5 -13 12 -9 8 5 9 2 5 -10
-4 -9 -3 -15 2 -12 4 3 20 -8 35 -24 14 -17 24 -30 22 -30 -2 0 17 -21 43 -47
25 -26 45 -51 43 -56 -1 -5 2 -6 6 -3 5 3 27 -13 49 -37 58 -62 152 -145 158
-139 3 3 5 -2 5 -11 0 -10 7 -17 16 -17 8 0 12 -5 9 -10 -3 -6 -1 -10 4 -10 6
0 20 -9 31 -20 11 -11 28 -20 37 -20 15 0 16 -2 3 -10 -13 -8 -12 -10 4 -10
10 0 25 -8 33 -18 10 -11 12 -12 8 -2 -4 10 -2 9 8 -3 8 -9 18 -17 22 -17 4 0
14 -8 22 -18 9 -11 12 -12 8 -2 -4 8 3 4 15 -10 12 -14 18 -18 14 -10 -5 11
-2 10 13 -3 11 -9 23 -17 28 -17 4 0 14 -8 22 -18 9 -11 12 -12 8 -2 -4 8 3 4
15 -10 12 -14 19 -19 15 -13 -3 7 9 3 28 -10 19 -12 32 -26 29 -31 -3 -5 0 -6
5 -3 14 9 65 -17 55 -28 -4 -5 -2 -5 4 -2 7 4 24 -3 40 -15 15 -13 24 -17 20
-9 -5 7 9 2 30 -11 44 -28 75 -42 87 -40 4 1 7 -3 7 -9 0 -5 5 -7 10 -4 6 3
10 1 10 -5 0 -6 5 -8 10 -5 6 3 10 1 10 -5 0 -6 5 -8 10 -5 6 3 10 1 10 -4 0
-6 3 -10 8 -10 19 3 33 -2 27 -11 -4 -6 1 -7 11 -3 11 4 15 3 11 -4 -5 -7 1
-9 15 -5 16 4 19 2 13 -9 -5 -8 -5 -11 0 -7 4 4 15 2 23 -5 12 -9 14 -9 8 0
-8 14 55 -16 65 -31 4 -4 9 -2 12 5 4 11 6 11 6 1 1 -7 6 -10 11 -7 6 3 10 1
10 -5 0 -6 4 -9 9 -5 5 3 12 1 16 -5 4 -6 11 -8 16 -5 5 4 9 2 9 -4 0 -5 9 -8
20 -6 11 2 18 0 15 -4 -3 -5 2 -12 11 -15 10 -4 13 -2 8 7 -6 9 -5 9 8 0 8 -7
18 -10 21 -6 4 3 7 1 7 -5 0 -7 3 -11 8 -11 18 3 33 -2 28 -9 -3 -5 1 -9 9 -9
8 0 12 4 9 9 -3 4 2 5 10 2 9 -3 13 -10 10 -15 -3 -5 1 -6 9 -3 8 3 18 0 22
-5 3 -6 11 -9 16 -5 5 3 17 0 26 -8 14 -11 16 -11 8 2 -5 9 1 7 15 -5 13 -11
20 -14 16 -8 -5 9 -2 11 8 7 9 -3 13 -10 10 -15 -3 -5 2 -6 10 -3 8 3 21 2 28
-2 7 -4 25 -8 40 -9 14 -1 35 -8 44 -16 10 -8 15 -9 11 -2 -6 9 3 8 28 -2 19
-9 35 -12 35 -9 0 4 8 0 17 -7 11 -9 14 -10 9 -2 -5 9 -2 11 8 7 9 -3 14 -9
11 -13 -2 -4 10 -5 27 -3 23 4 29 2 23 -8 -6 -10 -4 -11 6 -4 23 14 40 13 46
-3 4 -9 8 -11 12 -4 5 7 16 6 34 -4 15 -7 29 -10 32 -5 7 11 37 1 47 -14 5 -8
8 -8 8 0 0 7 13 10 33 7 17 -3 38 -5 45 -6 6 0 12 -5 12 -11 0 -6 5 -4 10 4 6
9 10 11 10 3 0 -7 7 -10 17 -6 12 5 14 3 8 -8 -7 -11 -6 -12 6 -2 12 10 18 10
29 0 10 -9 11 -9 6 0 -5 9 -2 11 8 7 9 -3 13 -11 9 -18 -4 -6 0 -6 9 2 9 7 19
9 22 4 3 -5 19 -8 36 -6 17 2 29 0 25 -5 -3 -5 3 -8 12 -6 10 2 18 4 18 5 0 8
36 6 42 -2 4 -7 1 -8 -7 -3 -9 5 -11 4 -6 -4 6 -8 12 -9 20 -2 9 7 17 7 26 -2
10 -9 11 -9 6 1 -4 6 -3 12 3 12 5 0 12 -6 14 -12 4 -10 6 -9 6 1 1 11 4 11
18 0 9 -8 14 -9 11 -4 -9 15 70 9 89 -6 13 -11 15 -11 9 -1 -10 16 25 13 36
-3 4 -6 8 -1 8 9 0 20 0 20 16 0 8 -10 13 -13 9 -6 -8 16 7 16 24 -1 11 -9 13
-9 7 1 -9 16 6 16 23 -1 8 -7 11 -7 8 -1 -4 7 3 12 18 12 14 0 22 -4 20 -8 -8
-12 24 -5 37 8 9 9 16 8 30 -5 18 -16 18 -16 12 3 -7 17 -6 17 9 5 14 -11 17
-11 17 0 0 11 2 11 10 -1 6 -10 10 -11 10 -3 0 15 21 13 32 -2 4 -5 8 -1 8 10
0 17 2 17 10 5 5 -8 10 -11 10 -6 0 5 7 3 15 -4 12 -10 16 -9 21 4 3 9 11 13
18 9 17 -11 37 -12 30 -2 -3 5 2 9 11 9 9 0 14 -4 11 -8 -3 -5 1 -9 8 -9 8 0
12 6 10 12 -5 13 24 14 44 1 7 -4 15 -1 18 9 6 13 8 14 15 3 7 -10 9 -10 9 1
0 11 4 9 15 -5 13 -16 14 -16 9 -1 -5 13 -1 17 17 17 19 0 21 -2 9 -10 -9 -6
-10 -10 -3 -10 7 0 17 8 22 18 7 11 10 12 11 3 0 -7 6 -11 14 -8 7 3 18 1 23
-4 6 -6 10 -4 10 5 0 8 -8 13 -19 11 -10 -2 -16 0 -13 4 5 8 39 7 82 -3 13 -2
25 0 28 5 4 5 11 6 17 3 6 -4 8 -2 5 3 -7 11 28 25 38 15 12 -12 36 -10 42 4
3 8 9 11 14 8 5 -3 6 -10 3 -16 -4 -7 -2 -8 5 -4 6 4 9 11 6 16 -3 4 2 11 11
14 8 3 12 2 9 -4 -3 -6 -1 -10 4 -10 6 0 11 5 11 10 0 6 5 10 11 10 5 0 8 -4
4 -9 -3 -5 0 -13 6 -17 7 -4 9 -3 6 3 -4 6 0 16 7 22 9 7 17 8 20 2 7 -10 31
-9 42 2 4 3 -3 4 -15 2 -12 -2 -19 0 -16 5 3 5 17 7 31 4 15 -3 23 -1 20 5 -7
10 13 9 31 -2 7 -4 16 0 21 9 8 15 10 14 16 -2 7 -17 9 -17 27 6 12 14 17 18
13 10 -7 -13 -6 -13 10 0 20 16 49 23 41 10 -3 -5 2 -7 11 -6 8 1 19 8 23 14
4 7 18 14 31 17 12 2 25 7 28 10 3 2 11 0 18 -6 8 -7 14 -6 20 2 5 8 3 9 -6 4
-9 -5 -11 -4 -6 4 4 6 13 8 19 4 16 -10 37 -13 36 -5 -3 20 2 25 11 12 8 -13
10 -12 10 4 0 20 0 20 15 0 11 -14 14 -15 9 -3 -3 10 0 20 7 25 8 4 10 3 5 -4
-4 -7 -2 -12 3 -12 6 0 11 5 11 11 0 8 5 7 16 -1 13 -11 16 -10 21 9 5 20 6
20 19 4 12 -15 13 -15 8 -2 -3 10 0 20 7 25 8 4 10 3 5 -4 -4 -7 -2 -12 3 -12
6 0 11 4 11 9 0 5 7 12 16 15 12 5 14 3 8 -7 -5 -7 -1 -4 9 6 11 13 17 15 17
6 0 -7 7 -3 16 9 13 18 19 21 30 11 11 -9 14 -8 14 7 0 16 2 17 10 4 7 -11 10
-11 10 -2 0 7 5 10 10 7 6 -3 10 0 10 7 0 9 3 9 10 -2 8 -13 10 -12 10 4 0 20
0 20 16 0 8 -10 13 -13 9 -6 -11 21 5 35 23 20 13 -11 14 -11 7 1 -6 11 -4 13
8 8 9 -3 19 -1 23 5 5 7 2 8 -6 3 -9 -5 -11 -4 -6 4 6 9 11 9 21 1 10 -8 16
-7 24 7 8 14 11 15 11 3 1 -10 4 -9 10 5 5 12 9 14 9 6 1 -11 5 -10 17 5 8 10
13 12 9 4 -4 -8 1 -6 9 4 12 15 16 16 16 5 0 -12 2 -12 10 1 5 8 10 11 10 6 0
-6 7 -1 16 10 8 10 13 14 10 8 -3 -6 1 -11 9 -11 8 0 12 4 10 8 -3 3 3 13 12
20 14 12 16 12 8 -1 -7 -12 -6 -13 7 -3 8 7 19 9 23 5 5 -4 4 -1 0 7 -6 11 -4
13 9 8 11 -5 15 -3 10 5 -5 8 -2 9 9 5 9 -3 19 -1 23 5 4 7 3 8 -4 4 -7 -4
-12 -5 -12 -2 0 2 14 11 30 20 19 9 28 10 24 3 -4 -7 4 -1 19 12 14 12 30 20
35 17 5 -3 18 4 28 15 10 11 23 18 30 15 9 -3 11 1 7 11 -5 12 -3 14 7 8 8 -5
18 -1 27 10 7 11 13 15 13 10 0 -5 7 0 16 11 8 10 13 12 9 4 -4 -10 -2 -9 8 3
8 9 20 17 26 17 7 0 9 5 5 12 -4 6 -3 8 4 4 6 -3 18 1 26 10 9 8 16 13 16 10
0 -3 17 11 38 30 22 20 44 33 55 30 9 -2 15 -1 12 4 -2 4 5 16 18 26 21 19 21
19 7 -1 -7 -11 5 0 28 23 23 24 42 41 42 38 0 -3 11 6 25 20 14 14 30 22 35
19 6 -4 7 1 3 11 -4 12 -3 15 5 10 7 -4 12 -3 12 2 0 5 29 34 64 65 36 30 62
57 59 61 -4 3 1 6 10 6 9 0 19 5 23 12 5 7 2 8 -7 3 -8 -4 -5 1 6 12 11 11 23
19 27 16 4 -2 5 4 1 14 -3 10 -3 15 2 11 4 -4 24 13 43 37 19 25 38 42 43 39
5 -3 6 3 2 12 -4 12 -3 15 5 10 7 -4 12 -3 12 2 0 5 17 27 38 49 56 60 103
113 98 113 -2 0 12 17 31 37 103 111 326 436 424 618 165 307 297 666 363 990
63 312 71 394 70 765 0 334 -5 408 -39 570 -2 13 -7 42 -11 65 -5 35 -27 145
-40 200 -3 11 -7 30 -10 41 -2 12 -14 53 -26 90 -12 38 -21 72 -20 77 1 4 -3
7 -9 7 -5 0 -7 5 -4 10 3 6 1 10 -6 10 -7 0 -10 3 -6 6 3 4 0 19 -9 35 -8 16
-11 29 -8 29 4 0 0 8 -9 18 -10 10 -14 21 -11 25 9 8 -19 3 -36 -8 -13 -8 -13
-7 -1 8 8 10 11 21 7 24 -4 4 -11 1 -16 -7 -12 -19 -40 -22 -33 -3 5 12 7 12
14 1 5 -7 9 -8 10 -3 0 6 2 18 4 27 2 10 -2 21 -7 25 -6 3 -8 1 -5 -4z m-3488
-4042 c22 -10 55 -34 73 -55 37 -43 42 -94 17 -167 -20 -57 -55 -92 -118 -119
-42 -18 -72 -22 -171 -24 -112 -1 -124 1 -166 24 -24 14 -59 45 -78 70 -28 37
-33 50 -28 79 7 47 99 139 178 180 56 28 69 31 157 31 71 0 106 -5 136 -19z"/>
<path d="M7013 4875 c-103 -32 -158 -67 -189 -120 -37 -64 -28 -95 26 -95 31
0 42 5 51 23 43 83 141 122 282 112 49 -4 101 -11 115 -15 48 -14 98 -39 109
-52 15 -19 43 -107 43 -135 0 -32 -47 -143 -72 -170 -19 -20 -23 -21 -47 -8
-71 36 -266 48 -321 20 -66 -34 -95 -102 -65 -148 30 -46 87 -62 220 -61 104
0 126 3 162 22 23 12 48 22 56 22 8 0 35 -18 60 -40 78 -69 100 -196 52 -295
-17 -34 -33 -46 -115 -88 -93 -47 -97 -48 -190 -48 -52 -1 -108 2 -125 7 -74
18 -195 124 -195 171 0 26 -25 53 -48 53 -10 0 -28 -7 -40 -16 -62 -43 14
-169 157 -259 82 -51 198 -66 345 -45 87 13 233 87 281 143 41 48 65 122 65
204 0 89 -48 194 -111 243 -24 18 -48 37 -53 41 -5 4 0 20 11 36 39 56 77 164
77 217 0 76 -29 157 -70 198 -47 48 -155 86 -259 93 -44 3 -94 7 -110 9 -17 2
-63 -6 -102 -19z"/>
<path d="M3653 4693 c-20 -8 -15 -38 10 -61 20 -19 278 -145 540 -263 l87 -40
40 22 c22 13 40 26 40 29 0 9 -673 320 -691 319 -8 0 -20 -3 -26 -6z"/>
<path d="M1295 4654 c-105 -27 -252 -111 -316 -180 -49 -53 -76 -217 -48 -291
15 -41 77 -101 133 -130 176 -90 470 -60 616 64 l33 28 -7 -30 c-20 -82 -115
-200 -212 -266 -128 -86 -228 -114 -315 -88 -45 14 -72 0 -67 -35 9 -61 163
-72 288 -21 105 44 228 134 287 212 82 108 104 168 104 280 -1 90 -21 202 -47
253 -7 14 -43 58 -81 97 -57 60 -77 74 -123 87 -57 17 -209 29 -245 20z m208
-94 c57 -18 71 -28 120 -84 46 -52 59 -75 73 -129 16 -64 16 -67 -5 -95 -87
-123 -274 -190 -453 -163 -104 16 -155 39 -201 91 -40 44 -42 55 -27 160 10
73 19 83 140 164 114 77 228 95 353 56z"/>
<path d="M4693 4266 c-13 -6 -23 -14 -23 -19 0 -4 5 -5 10 -2 16 10 11 -1 -7
-16 -9 -8 -14 -9 -10 -3 3 6 0 19 -7 29 -12 17 -14 15 -32 -21 -28 -56 -77
-86 -136 -82 -35 2 -44 0 -36 -9 12 -15 -2 -42 -39 -70 -44 -35 -342 -237
-668 -455 -165 -111 -302 -204 -305 -207 -3 -3 -22 -17 -42 -31 -21 -14 -38
-28 -38 -32 0 -17 25 -6 84 34 33 23 104 71 156 106 115 78 644 442 669 459
15 12 17 9 13 -21 -3 -27 1 -37 23 -55 34 -26 79 -27 103 -3 10 10 31 54 47
97 30 84 72 161 82 151 4 -3 13 0 21 7 11 8 14 8 9 0 -4 -6 -3 -14 3 -18 5 -3
10 0 10 7 0 9 3 9 10 -2 12 -19 31 -20 53 -2 14 13 17 13 17 1 0 -12 2 -12 9
0 5 8 14 10 21 6 9 -5 11 -4 6 3 -4 7 -2 12 5 12 12 0 176 -74 434 -195 55
-26 118 -55 140 -65 32 -14 507 -235 1135 -527 393 -183 465 -214 494 -211 20
2 32 9 34 21 7 38 13 35 -393 222 -99 46 -254 118 -345 160 -91 42 -415 193
-720 335 -651 302 -773 359 -779 366 -2 2 4 10 14 18 23 17 7 26 -22 12z"/>
<path d="M4376 3344 c-4 -12 -14 -14 -36 -9 -25 6 -31 3 -41 -19 -9 -19 -9
-32 -1 -50 9 -21 16 -24 45 -19 28 4 38 0 62 -25 35 -38 107 -61 130 -42 14
12 14 15 -2 33 -17 19 -17 20 0 14 9 -4 17 -2 17 3 0 5 -8 11 -17 13 -17 4
-17 5 0 6 32 2 17 21 -18 21 l-34 0 21 35 c25 44 18 54 -19 28 -52 -36 -56
-37 -48 -14 7 24 -12 30 -21 6 -10 -25 -27 -17 -20 10 7 27 -8 35 -18 9z"/>
<path d="M3220 3251 c0 -4 15 -7 34 -8 19 -1 60 -9 92 -18 46 -13 69 -28 113
-74 31 -31 65 -76 75 -100 19 -40 20 -41 28 -20 6 15 5 25 -4 30 -8 5 -5 8 9
7 17 -2 20 -6 13 -24 -6 -16 -5 -26 5 -34 8 -7 12 -17 8 -24 -3 -6 -2 -7 3 -3
5 5 9 14 9 20 1 7 6 11 13 9 10 -2 10 2 0 18 -9 14 -14 16 -20 7 -10 -16 -9 3
2 28 l9 20 0 -20 c1 -17 3 -18 12 -5 9 12 10 12 5 -4 -4 -11 -2 -22 3 -25 11
-7 24 -65 22 -99 -2 -35 -35 -104 -62 -129 -42 -37 -98 -64 -169 -79 -73 -17
-185 5 -235 45 -18 15 -19 15 -7 -1 14 -18 92 -62 92 -52 0 4 6 2 13 -3 21
-18 144 -16 200 3 175 57 233 192 153 360 -42 88 -137 194 -159 176 -7 -6 -23
-10 -35 -7 -20 3 -21 2 -10 -18 10 -20 10 -21 -6 -8 -10 8 -25 16 -34 17 -10
1 -28 5 -42 9 -35 10 -130 14 -130 6z"/>
<path d="M6781 2886 c-23 -28 -59 -320 -43 -345 14 -20 88 -31 175 -24 l77 6
0 -67 c0 -59 2 -67 18 -64 14 3 18 16 20 65 l3 62 42 8 c29 6 43 14 45 27 4
17 -1 18 -37 13 l-41 -5 0 78 c0 44 -4 81 -9 84 -18 12 -30 -22 -33 -94 l-3
-75 -90 -3 c-49 -2 -101 0 -114 3 -23 6 -23 7 -16 87 4 45 13 115 21 156 8 41
14 80 14 88 0 18 -14 18 -29 0z"/>
<path d="M1854 2750 c-11 -4 -34 -24 -52 -44 -42 -48 -45 -109 -6 -155 l25
-30 -25 -28 c-42 -45 -50 -76 -35 -125 29 -88 139 -130 236 -88 62 26 92 57
103 103 11 51 2 84 -36 124 -29 30 -32 38 -19 47 19 15 35 60 35 100 0 33 -31
71 -77 95 -25 13 -118 14 -149 1z m137 -40 c52 -27 66 -57 45 -98 -22 -43 -44
-52 -126 -55 -81 -2 -104 12 -104 68 0 55 55 100 127 104 10 1 36 -8 58 -19z
m47 -236 c40 -42 42 -80 7 -118 -56 -61 -149 -73 -208 -28 -43 33 -54 69 -32
111 43 84 168 102 233 35z"/>
<path d="M5890 1999 c-160 -20 -148 -15 -155 -62 -3 -23 -10 -98 -15 -167 -11
-156 -6 -164 69 -126 97 50 198 41 221 -19 14 -37 13 -43 -15 -70 -33 -34
-119 -36 -159 -4 -33 26 -55 13 -34 -20 30 -48 175 -56 222 -12 46 43 38 127
-15 165 -59 41 -161 40 -227 -1 -13 -8 -25 -13 -27 -11 -6 6 15 262 23 269 4
4 71 13 150 20 125 12 142 15 142 31 0 15 -8 18 -57 17 -32 -1 -87 -5 -123
-10z"/>
<path d="M2758 1752 c-49 -3 -60 -14 -32 -30 9 -5 98 -7 200 -4 183 5 204 1
169 -28 -8 -6 -17 -20 -20 -30 -3 -10 -33 -65 -65 -122 -33 -56 -60 -107 -60
-113 0 -6 -12 -32 -26 -58 -25 -47 -26 -77 -4 -77 6 0 35 52 65 115 50 106 79
160 158 287 16 26 26 52 22 58 -6 10 -285 11 -407 2z"/>
<path d="M6960 1127 c-14 -12 -41 -33 -59 -47 -18 -14 -45 -35 -60 -47 -57
-45 -244 -173 -254 -173 -6 0 -18 -6 -26 -14 -9 -8 -59 -36 -111 -64 -52 -27
-116 -61 -142 -75 l-46 -24 61 -60 c215 -208 530 -469 664 -549 107 -64 162
-79 236 -64 71 14 103 29 134 62 73 78 70 203 -13 443 -54 159 -240 493 -336
607 l-23 27 -25 -22z"/>
<path d="M2216 979 c6 -8 13 -24 16 -35 5 -18 1 -21 -23 -19 -27 2 -34 -5 -29
-30 1 -5 -4 -5 -10 2 -8 7 -22 8 -40 3 -16 -5 -32 -5 -36 -2 -4 4 -4 2 0 -5 3
-6 15 -10 26 -8 12 2 18 0 15 -6 -4 -5 -11 -7 -16 -4 -5 4 -13 -4 -18 -17 -10
-23 -10 -23 -10 -1 -1 12 -5 24 -10 27 -4 3 -6 -6 -3 -19 2 -15 0 -25 -7 -25
-7 0 -10 4 -6 9 3 5 0 13 -7 17 -7 4 -10 4 -6 -1 9 -9 -11 -37 -21 -31 -4 3
-8 -7 -9 -21 -2 -30 -11 -45 -22 -38 -4 3 -11 -2 -14 -11 -5 -13 -9 -14 -21
-4 -8 6 -19 9 -25 5 -5 -3 -10 2 -11 12 0 17 -1 17 -8 0 -4 -10 -11 -19 -16
-19 -17 -1 -45 -24 -38 -31 3 -4 1 -7 -5 -7 -6 0 -13 8 -15 18 -4 14 -5 14 -6
-3 -1 -17 -3 -18 -11 -5 -8 12 -10 12 -10 1 0 -11 -3 -11 -17 0 -15 12 -16 12
-8 -1 5 -8 10 -22 10 -30 0 -8 6 -15 14 -15 8 0 16 -7 18 -15 4 -13 3 -13 -6
0 -10 14 -15 8 -12 -15 1 -5 -8 1 -19 14 -11 12 -17 28 -13 34 3 6 1 7 -5 3
-6 -4 -9 -13 -6 -20 4 -10 -3 -13 -25 -11 -17 1 -30 0 -29 -4 0 -3 -1 -9 -2
-13 -1 -5 -3 -14 -4 -20 -1 -7 -8 -12 -15 -10 -7 1 -10 -2 -6 -8 5 -8 11 -7
21 1 11 9 14 8 14 -2 1 -8 6 -4 13 9 7 12 16 19 21 15 4 -4 4 1 1 12 -5 15 -4
16 3 6 8 -11 10 -11 14 0 3 9 6 8 11 -4 4 -10 2 -16 -6 -14 -7 1 -11 -8 -11
-20 1 -13 -3 -20 -7 -17 -5 3 -7 10 -4 15 12 18 -7 8 -26 -13 -26 -32 -24 -45
4 -22 l22 19 -20 -24 c-11 -13 -18 -25 -17 -28 2 -3 0 -8 -4 -11 -4 -4 -4 -2
0 5 3 6 2 14 -3 17 -11 7 -23 -22 -15 -35 3 -5 0 -8 -8 -7 -7 2 -12 -3 -10
-10 1 -6 -4 -11 -10 -10 -8 2 -12 -6 -12 -20 1 -12 -1 -20 -4 -18 -3 3 -10 -1
-16 -9 -8 -11 -15 -12 -26 -4 -13 9 -12 10 3 5 9 -3 17 -1 17 3 0 11 -30 23
-31 13 -2 -24 -11 -61 -24 -99 -25 -75 -30 -173 -11 -231 29 -87 118 -142 226
-142 119 0 345 168 715 531 l179 177 -79 40 c-78 39 -229 129 -350 207 -33 21
-55 32 -49 24z"/>
</g>
</svg>
