<?xml version="1.0" standalone="no"?>
<!DOCTYPE svg PUBLIC "-//W3C//DTD SVG 20010904//EN"
 "http://www.w3.org/TR/2001/REC-SVG-20010904/DTD/svg10.dtd">
<svg version="1.0" xmlns="http://www.w3.org/2000/svg"
 width="93.000000pt" height="40.000000pt" viewBox="0 0 93.000000 40.000000"
 preserveAspectRatio="xMidYMid meet">
<metadata>
Created by potrace 1.16, written by Peter Selinger 2001-2019
</metadata>
<g transform="translate(0.000000,40.000000) scale(0.008611,-0.003704)"
fill="#000000" stroke="none">
<path d="M5295 7969 c-84 -34 -114 -51 -155 -86 -33 -28 -40 -41 -40 -70 0
-20 7 -44 15 -53 14 -16 13 -19 -10 -34 -24 -16 -35 -56 -15 -56 5 0 17 -15
26 -32 9 -18 22 -36 29 -40 18 -11 49 -98 38 -109 -13 -13 -71 9 -83 31 -6 10
-7 26 -4 35 4 10 -2 29 -15 45 -11 16 -21 36 -21 45 0 24 -39 57 -59 50 -10
-3 -27 3 -40 14 -29 25 -102 34 -170 21 -30 -5 -63 -7 -74 -4 -10 3 -30 3 -45
-1 -25 -7 -26 -8 -7 -15 11 -5 32 -9 48 -9 31 -1 37 -20 7 -28 -25 -7 -33 -33
-20 -67 8 -23 12 -25 30 -14 11 7 24 25 29 40 14 40 66 64 107 49 17 -6 38 -9
45 -6 8 3 18 -4 24 -17 6 -13 20 -24 33 -26 12 -2 22 -8 22 -13 0 -5 23 -38
50 -73 56 -72 54 -80 -19 -78 -25 0 -58 -4 -73 -11 l-26 -11 33 -23 c29 -20
34 -30 41 -80 7 -62 -7 -101 -52 -144 -35 -33 -124 -39 -153 -10 -11 11 -21
31 -21 43 l0 22 -16 -22 c-13 -18 -14 -29 -5 -54 6 -17 8 -41 5 -54 -5 -20 13
-91 36 -134 4 -9 11 -30 14 -47 4 -17 14 -37 22 -44 24 -19 64 -105 64 -135 0
-15 13 -41 29 -60 25 -28 31 -31 41 -18 16 18 34 18 50 -1 19 -22 28 -18 35
16 4 19 2 41 -6 55 -20 37 -3 43 96 35 50 -4 97 -4 106 0 17 8 29 58 29 119 0
19 7 67 15 105 8 39 15 89 15 112 0 45 18 64 51 56 11 -3 22 3 28 16 10 18 21
21 76 21 63 0 94 -14 96 -43 0 -7 6 4 13 23 10 30 10 38 -6 59 -10 13 -18 30
-18 37 0 8 -4 14 -10 14 -5 0 -10 -11 -10 -25 0 -22 -4 -25 -40 -25 -22 0 -40
4 -40 8 0 14 45 52 62 52 13 0 17 11 17 55 0 30 -5 57 -10 61 -6 3 -45 12 -88
19 -76 14 -193 53 -159 54 21 1 59 73 83 156 24 84 39 105 77 105 70 0 208
-92 208 -138 0 -7 4 -12 9 -12 12 0 71 75 71 90 0 9 12 11 38 8 36 -5 59 -16
152 -66 30 -17 45 -21 53 -13 7 7 7 14 1 20 -84 78 -115 99 -155 105 -38 6
-54 18 -124 90 -100 103 -151 130 -255 133 -57 2 -87 -3 -125 -18z"/>
<path d="M3710 7928 c-30 -13 -82 -43 -115 -66 -34 -24 -70 -43 -80 -42 -11 0
-46 3 -77 6 l-57 6 -45 -48 c-47 -48 -63 -93 -28 -76 9 5 37 18 62 30 l45 22
7 -21 c6 -16 14 -20 31 -15 81 24 83 23 107 -43 13 -35 29 -61 37 -61 8 0 37
17 66 38 71 53 84 59 145 67 72 10 97 -7 106 -72 7 -60 22 -142 30 -168 4 -11
3 -25 -1 -30 -14 -19 -107 -70 -138 -75 -34 -6 -34 -13 -10 -79 l16 -44 -27
-22 c-25 -20 -26 -23 -10 -32 10 -5 37 -6 64 -2 63 10 138 0 156 -20 11 -12
17 -50 21 -126 9 -173 24 -263 47 -279 23 -17 61 -147 52 -182 -6 -22 1 -33
47 -75 57 -52 85 -65 121 -56 12 4 28 1 35 -5 18 -15 34 1 34 33 1 43 32 164
47 182 18 20 27 36 79 137 22 41 44 84 50 95 13 22 41 85 70 155 14 35 17 60
12 115 -3 39 -6 62 -7 53 -3 -28 -39 -58 -69 -58 -62 0 -103 20 -138 68 -30
41 -34 52 -29 87 7 50 24 95 35 95 5 0 9 4 9 8 0 5 -22 14 -50 21 -57 15 -67
25 -46 46 18 18 11 42 -14 50 -12 4 -16 12 -13 26 5 17 2 20 -18 17 -17 -2
-27 -13 -34 -34 -6 -17 -16 -38 -24 -47 -14 -18 -76 -23 -85 -8 -3 4 8 30 25
56 45 71 50 88 33 120 -10 19 -11 32 -4 45 17 32 11 75 -13 98 -13 12 -28 22
-34 22 -6 0 -25 11 -42 25 -43 37 -163 76 -251 81 -63 4 -84 1 -130 -18z"/>
<path d="M5539 7642 c-44 -30 -129 -105 -129 -114 0 -18 31 -20 50 -3 14 13
32 16 72 13 53 -3 53 -3 72 35 16 33 17 42 6 63 -16 28 -36 30 -71 6z"/>
<path d="M4555 6701 c-73 -34 -88 -60 -93 -159 -4 -76 -1 -92 17 -122 11 -19
21 -46 21 -60 1 -14 14 -40 30 -59 27 -32 32 -33 55 -23 15 7 31 10 36 7 16
-10 10 -40 -11 -53 -11 -7 -20 -18 -20 -25 0 -22 60 -35 102 -23 49 15 53 21
23 40 -26 17 -34 44 -12 43 6 0 29 1 50 1 33 2 37 5 37 30 0 15 16 52 36 82
30 47 35 61 31 98 -3 24 0 56 6 71 19 51 -13 106 -88 152 -41 26 -164 26 -220
0z"/>
<path d="M4050 6508 c1 -18 7 -62 15 -98 19 -88 19 -100 -5 -100 -11 0 -20 -7
-20 -15 0 -32 49 -146 83 -193 31 -44 35 -57 34 -104 -1 -40 5 -63 22 -91 32
-52 48 -48 56 16 10 73 43 122 58 83 3 -7 -1 -26 -9 -41 -8 -15 -14 -35 -14
-44 0 -9 -7 -25 -15 -35 -19 -25 -19 -49 0 -87 13 -23 20 -28 39 -23 20 5 25
0 35 -26 9 -26 15 -31 32 -27 12 3 45 -5 74 -18 57 -25 91 -23 150 8 42 22 95
79 104 113 6 23 13 29 37 30 61 1 223 143 224 197 0 18 -15 23 -25 7 -25 -40
-181 -64 -253 -39 -24 8 -37 7 -61 -5 -34 -18 -63 -20 -89 -7 -42 23 -192 91
-201 91 -22 0 -89 49 -142 105 -46 47 -56 63 -48 76 15 28 11 81 -11 150 -33
103 -70 144 -70 77z"/>
<path d="M3670 5661 c0 -5 7 -12 16 -15 15 -6 15 -8 -1 -26 -10 -11 -31 -20
-46 -20 -33 0 -54 -19 -68 -63 -17 -49 -2 -77 49 -97 53 -21 69 -42 51 -64 -8
-9 -23 -16 -35 -16 -28 0 -66 39 -66 67 0 22 -18 33 -53 33 -19 0 -18 -3 10
-26 30 -24 31 -29 26 -79 -5 -45 -2 -56 16 -74 19 -19 32 -21 129 -21 114 0
132 6 132 46 0 32 18 42 85 43 131 2 186 44 140 105 -14 19 -15 19 -57 0 -23
-10 -55 -30 -70 -43 -21 -17 -35 -21 -54 -17 -25 7 -26 8 -9 26 10 11 23 20
30 20 14 0 50 38 58 63 4 10 17 17 32 17 31 0 33 18 2 25 -12 3 -31 19 -42 36
-49 72 -137 98 -151 43 -3 -13 -9 -24 -13 -24 -13 0 -31 24 -31 42 0 10 -3 19
-7 19 -49 7 -73 7 -73 0z"/>
<path d="M4147 5373 c-12 -11 -8 -211 4 -219 20 -12 192 -14 206 -3 9 8 13 41
13 114 0 85 -3 104 -16 109 -21 8 -199 8 -207 -1z"/>
<path d="M5045 5260 c-3 -6 -3 -20 1 -33 8 -24 7 -92 -1 -118 -3 -10 -16 -16
-33 -16 -15 0 -151 -4 -302 -8 -257 -7 -276 -9 -291 -27 -14 -18 -27 -20 -164
-19 -142 2 -149 3 -170 25 -21 23 -28 24 -176 25 -174 2 -413 16 -428 26 -6 3
-11 19 -11 34 0 31 -23 57 -40 46 -5 -3 -10 -25 -10 -49 0 -31 8 -54 29 -82
l28 -40 8 -314 c4 -173 8 -356 9 -407 0 -50 4 -95 9 -99 9 -10 188 -23 325
-23 92 -1 102 1 102 17 0 10 -4 22 -9 28 -17 18 -41 118 -41 174 0 127 77 253
187 307 31 15 60 37 65 49 10 20 17 22 119 20 108 -1 109 -1 118 -28 5 -14 20
-32 33 -39 39 -21 115 -89 142 -128 88 -127 53 -351 -72 -462 -57 -50 -104
-72 -195 -89 -86 -16 -138 -1 -259 74 -23 14 -32 2 -18 -24 42 -78 352 -95
477 -26 25 14 45 36 59 65 12 24 28 47 36 52 19 11 149 18 321 19 126 0 137 1
137 18 0 10 -3 22 -7 26 -5 4 -8 31 -8 59 0 44 -3 52 -20 55 -39 8 -38 21 9
117 l48 97 0 166 c0 92 -3 197 -7 233 -10 92 -3 109 40 102 45 -7 55 15 25 55
-18 24 -19 33 -10 53 20 45 -31 128 -55 89z"/>
<path d="M4123 4701 c-73 -27 -126 -73 -165 -144 -31 -58 -33 -68 -33 -158 0
-82 4 -102 25 -145 32 -63 99 -130 155 -155 52 -23 180 -27 244 -8 52 15 125
78 151 130 30 58 24 65 -21 24 -49 -44 -156 -95 -199 -95 -45 0 -36 16 15 29
63 16 119 69 146 139 28 75 23 196 -10 260 -26 51 -91 100 -143 108 -20 4 -43
13 -49 20 -15 19 -54 17 -116 -5z"/>
<path d="M6175 3726 c-9 -13 -20 -48 -25 -77 -18 -108 -32 -159 -44 -159 -7 0
-30 36 -51 81 -42 85 -66 116 -64 83 0 -11 17 -55 38 -99 21 -44 35 -81 31
-83 -4 -2 -38 4 -75 13 -65 15 -94 13 -66 -4 7 -5 37 -14 67 -20 30 -7 54 -16
54 -20 0 -4 -29 -31 -65 -61 -36 -30 -65 -57 -65 -62 0 -19 31 -4 100 47 71
53 90 63 90 48 0 -5 -11 -57 -25 -118 -26 -114 -32 -166 -16 -149 11 12 48
127 57 177 8 47 16 52 40 26 23 -25 54 -43 54 -31 0 5 -16 29 -35 53 -19 24
-35 47 -35 52 0 4 53 4 118 1 85 -5 114 -4 107 4 -6 7 -51 14 -100 18 -50 4
-96 10 -103 13 -8 4 22 31 80 71 85 60 103 80 81 87 -5 2 -40 -17 -78 -43 -46
-30 -71 -41 -73 -32 -1 7 4 57 11 111 8 53 12 97 11 97 -2 0 -11 -11 -19 -24z"/>
<path d="M6592 3477 c-5 -6 -24 -52 -42 -102 -18 -49 -36 -94 -40 -98 -4 -5
-22 12 -40 37 -19 25 -39 46 -47 46 -20 0 -16 -12 19 -60 32 -43 32 -43 8 -37
-14 4 -42 10 -64 13 -57 10 -43 -17 18 -32 62 -16 64 -19 27 -39 -40 -20 -41
-39 -1 -30 17 4 30 4 30 0 0 -3 -11 -28 -25 -55 -14 -27 -25 -57 -25 -66 0
-32 26 -6 63 65 l39 73 46 -47 c54 -55 68 -44 21 17 l-33 41 57 -6 c45 -4 57
-3 57 8 0 8 -15 17 -37 20 -21 4 -42 8 -48 9 -5 2 25 21 68 42 42 21 77 42 77
46 0 17 -43 7 -101 -23 -34 -17 -63 -28 -66 -26 -2 3 12 45 32 94 19 50 35 95
35 101 0 17 -17 23 -28 9z"/>
<path d="M3276 1304 c-6 -16 42 -183 55 -194 4 -3 9 -15 13 -27 6 -17 3 -23
-8 -23 -9 0 -16 4 -16 9 0 5 -14 14 -30 21 -17 7 -49 26 -71 42 -41 29 -69 31
-69 5 0 -17 59 -77 75 -77 6 0 26 -13 45 -28 l33 -29 -66 -19 c-57 -16 -67
-22 -67 -41 0 -27 6 -28 77 -7 60 17 69 15 54 -13 -19 -35 -40 -114 -34 -129
8 -22 35 -13 50 16 22 45 47 105 48 112 0 4 5 12 11 18 7 7 17 -12 33 -62 13
-40 27 -77 31 -83 4 -5 13 -27 20 -48 8 -27 17 -37 28 -35 24 5 21 38 -9 138
l-26 86 26 0 c57 1 71 5 71 18 0 8 -13 17 -30 21 -16 4 -32 11 -35 16 -4 5
-15 9 -26 9 -31 0 -22 14 24 34 66 31 154 91 150 103 -4 11 -103 -13 -113 -28
-3 -4 -18 -11 -33 -14 -15 -4 -27 -11 -27 -16 0 -5 -7 -9 -16 -9 -10 0 -12 5
-7 13 4 6 9 21 10 31 2 11 10 27 18 36 8 9 15 24 15 33 0 9 9 32 19 51 21 37
19 46 -14 46 -23 0 -55 -28 -55 -48 0 -6 -8 -27 -17 -47 -18 -37 -43 -47 -43
-17 0 23 -62 145 -76 149 -6 2 -14 -4 -18 -13z"/>
<path d="M3777 1313 c-18 -5 -18 -7 -2 -113 17 -117 17 -124 2 -112 -40 34
-119 35 -110 2 4 -17 49 -45 66 -42 4 1 7 -2 7 -7 0 -5 -16 -12 -36 -15 -36
-7 -50 -25 -41 -51 5 -12 12 -12 52 2 51 17 66 12 42 -15 -22 -24 -7 -44 29
-40 23 2 29 -1 29 -17 1 -26 15 -85 21 -85 3 0 14 4 24 10 16 9 18 19 14 81
-4 64 -3 70 13 65 35 -10 104 -17 113 -11 19 12 -9 41 -52 54 l-43 13 45 17
c35 13 44 21 42 37 -5 27 -7 28 -41 16 -17 -6 -31 -10 -31 -8 0 14 43 96 50
96 14 0 12 37 -1 46 -18 11 -55 -16 -69 -50 -7 -18 -21 -38 -31 -44 -16 -10
-19 -7 -24 26 -11 60 -37 152 -44 151 -3 -1 -14 -3 -24 -6z"/>
</g>
</svg>
